<?xml version="1.0" encoding="UTF-8" standalone="no"?>
<!DOCTYPE svg PUBLIC "-//W3C//DTD SVG 1.1//EN" "http://www.w3.org/Graphics/SVG/1.1/DTD/svg11.dtd">
<svg xmlns="http://www.w3.org/2000/svg" version="1.1" viewBox="0.00 0.00 500.00 500.00">
<g stroke-width="2.00" fill="none" stroke-linecap="butt">
<path stroke="#8b27d6" vector-effect="non-scaling-stroke" d="
  M 308.40 106.41
  Q 301.82 111.63 296.91 118.90
  Q 295.95 120.33 291.89 124.27
  Q 291.77 124.39 287.15 129.25
  Q 283.45 133.15 278.29 135.98
  Q 277.31 136.52 278.36 136.90
  Q 279.28 137.23 281.06 136.51
  Q 283.29 135.61 284.91 135.41
  Q 285.42 135.34 285.77 135.72
  Q 286.35 136.36 285.86 137.54"
/>
<path stroke="#7f27bf" vector-effect="non-scaling-stroke" d="
  M 285.86 137.54
  C 284.51 139.11 283.38 140.48 282.46 142.41
  Q 274.49 159.14 268.03 176.45"
/>
<path stroke="#8b27d6" vector-effect="non-scaling-stroke" d="
  M 268.03 176.45
  Q 264.59 181.36 260.03 184.31
  Q 252.30 189.32 246.20 193.93
  Q 241.79 197.27 240.82 199.33
  Q 238.44 204.41 237.89 205.59
  Q 236.88 207.75 230.70 212.96
  Q 225.41 217.42 219.63 221.05
  Q 217.43 222.42 213.92 222.95
  Q 213.39 223.03 213.59 222.53
  Q 215.27 218.36 217.13 214.77
  Q 218.41 212.31 222.66 208.44
  Q 223.63 207.56 230.72 200.95
  Q 231.73 200.01 230.35 200.05
  Q 226.75 200.17 223.57 202.57
  Q 220.59 204.83 214.44 210.20
  Q 213.57 210.96 211.41 211.05
  Q 210.90 211.07 210.89 210.57
  Q 210.82 207.88 209.37 205.62
  A 2.34 2.34 0.0 0 1 209.98 202.44
  Q 212.08 200.96 215.52 197.54
  Q 217.56 195.51 220.02 191.57
  Q 221.32 189.48 226.95 181.18
  Q 230.26 176.31 234.44 173.47"
/>
<path stroke="#6e28a6" vector-effect="non-scaling-stroke" d="
  M 282.91 109.20
  L 283.32 109.47"
/>
<path stroke="#7524b7" vector-effect="non-scaling-stroke" d="
  M 291.83 135.70
  L 285.86 137.54"
/>
<path stroke="#b290ce" vector-effect="non-scaling-stroke" d="
  M 288.80 180.23
  L 230.74 240.17
  Q 229.36 241.59 229.90 239.68
  Q 232.45 230.59 234.39 225.01
  Q 235.66 221.36 237.77 216.93
  Q 239.66 212.97 241.49 208.99"
/>
<path stroke="#7524b7" vector-effect="non-scaling-stroke" d="
  M 241.49 208.99
  Q 246.01 210.22 250.35 209.93
  Q 257.43 209.44 259.44 202.70
  Q 262.50 192.37 266.30 182.30
  Q 266.86 180.83 267.23 179.39
  Q 267.60 177.92 268.03 176.45"
/>
<path stroke="#bf90e5" vector-effect="non-scaling-stroke" d="
  M 241.49 208.99
  L 249.36 196.90
  Q 250.13 195.71 249.03 196.60
  Q 248.24 197.24 247.19 198.43
  Q 243.50 202.63 237.60 211.36
  Q 234.92 215.33 226.66 222.43
  Q 224.74 224.07 224.05 228.85"
/>
<path stroke="#64249d" vector-effect="non-scaling-stroke" d="
  M 224.05 228.85
  Q 221.59 230.48 218.99 231.80
  Q 216.18 233.23 214.90 232.78
  Q 210.43 231.24 206.29 233.04
  Q 205.83 233.24 205.93 232.75
  Q 208.23 221.77 209.94 213.74
  Q 210.06 213.20 210.12 211.50
  Q 210.14 210.99 209.70 210.73
  Q 207.18 209.29 206.66 209.25
  Q 200.98 208.85 196.40 206.67"
/>
<path stroke="#7f27bf" vector-effect="non-scaling-stroke" d="
  M 328.18 145.44
  Q 327.26 145.21 326.72 145.72
  Q 325.15 147.25 323.30 149.67
  Q 321.52 152.01 319.90 153.58
  Q 306.79 166.29 304.44 169.19
  Q 301.30 173.07 297.86 176.71
  A 1.07 1.05 -65.7 0 1 297.01 177.04
  Q 296.08 176.96 295.41 176.53"
/>
<path stroke="#c993ed" vector-effect="non-scaling-stroke" d="
  M 295.41 176.53
  L 295.70 174.85
  Q 295.79 174.32 295.37 174.67
  L 288.80 180.23"
/>
<path stroke="#7f27bf" vector-effect="non-scaling-stroke" d="
  M 288.80 180.23
  Q 285.97 177.32 288.62 174.11
  Q 290.15 172.25 295.27 167.10
  Q 298.10 164.25 301.79 159.98
  Q 306.54 154.46 311.01 149.76
  Q 311.75 148.98 315.33 144.24
  Q 315.64 143.84 315.65 143.33
  Q 315.68 141.36 314.99 139.47
  Q 314.83 139.00 315.04 138.56
  Q 315.71 137.14 315.34 135.93"
/>
<path stroke="#7f27bf" vector-effect="non-scaling-stroke" d="
  M 313.12 134.66
  Q 311.47 140.96 305.71 147.22
  Q 302.14 151.09 298.11 154.67
  Q 296.62 156.00 297.44 154.18
  L 301.09 146.14
  Q 301.34 145.58 300.86 145.96
  L 292.48 152.58"
/>
<path stroke="#7f27bf" vector-effect="non-scaling-stroke" d="
  M 288.48 156.78
  Q 288.30 157.53 287.71 158.31
  Q 287.01 159.22 286.82 159.71
  Q 282.85 169.76 278.89 176.69
  Q 278.25 177.80 275.98 178.91
  C 275.13 179.33 274.59 179.96 274.02 180.43
  Q 273.36 180.97 273.02 181.94
  Q 270.20 190.14 265.47 197.21
  A 0.47 0.47 0.0 0 1 264.62 197.05
  Q 264.51 196.54 264.86 195.76
  Q 265.92 193.41 266.65 190.97
  Q 267.90 186.81 268.14 186.12
  Q 270.77 178.61 273.33 171.08
  Q 273.79 169.73 276.87 162.44
  Q 277.54 160.84 278.15 160.07
  Q 278.99 159.00 279.40 157.66
  Q 279.71 156.63 280.65 155.83
  Q 281.58 155.03 282.53 154.55"
/>
<path stroke="#6e28a6" vector-effect="non-scaling-stroke" d="
  M 291.84 145.92
  Q 291.91 145.66 292.23 145.29"
/>
<path stroke="#a291b5" vector-effect="non-scaling-stroke" d="
  M 295.51 221.72
  L 273.26 244.34
  Q 272.89 244.71 272.90 245.24
  Q 273.10 256.08 270.50 268.27
  A 0.08 0.08 0.0 0 1 270.35 268.26
  L 268.67 250.94
  A 0.83 0.83 0.0 0 0 267.25 250.44
  L 240.43 278.04
  A 1.83 1.82 67.0 0 0 239.91 279.34
  Q 240.10 290.56 239.73 298.35
  Q 239.66 299.90 239.45 298.36
  Q 238.57 291.85 236.10 282.84
  A 0.37 0.36 -29.9 0 0 235.49 282.68
  C 229.69 288.41 225.26 291.99 221.38 297.88
  Q 209.57 315.84 203.06 336.31
  Q 202.90 336.81 203.16 337.42"
/>
<path stroke="#a291b5" vector-effect="non-scaling-stroke" d="
  M 202.90 337.67
  Q 202.29 340.94 200.15 343.27"
/>
<path stroke="#b290ce" vector-effect="non-scaling-stroke" d="
  M 192.92 370.50
  Q 192.26 371.71 192.49 372.50"
/>
<path stroke="#b290ce" vector-effect="non-scaling-stroke" d="
  M 192.49 372.50
  Q 191.91 372.09 191.45 372.89"
/>
<path stroke="#9c93ab" vector-effect="non-scaling-stroke" d="
  M 188.53 372.55
  L 188.48 371.30"
/>
<path stroke="#c993ed" vector-effect="non-scaling-stroke" d="
  M 188.48 371.30
  Q 188.79 371.01 188.76 370.47"
/>
<path stroke="#b290ce" vector-effect="non-scaling-stroke" d="
  M 195.57 344.05
  Q 196.00 343.65 195.69 342.94"
/>
<path stroke="#b290ce" vector-effect="non-scaling-stroke" d="
  M 197.06 340.81
  Q 197.41 340.42 197.20 339.91"
/>
<path stroke="#a291b5" vector-effect="non-scaling-stroke" d="
  M 197.20 339.91
  Q 199.03 336.71 198.47 332.99
  Q 198.40 332.50 198.69 332.09
  Q 199.53 330.95 199.66 330.43
  Q 208.14 298.06 208.31 297.44
  Q 210.32 290.13 215.37 268.91
  Q 216.81 262.87 219.51 249.35
  Q 221.57 239.06 224.05 228.85"
/>
<path stroke="#8b27d6" vector-effect="non-scaling-stroke" d="
  M 216.47 172.44
  Q 215.15 173.07 214.21 174.07
  Q 213.87 174.44 213.87 174.94
  Q 213.89 177.10 213.61 177.86
  Q 212.31 181.41 211.37 185.08
  C 210.73 187.60 209.65 189.12 207.88 190.63
  Q 204.28 193.70 200.90 195.58
  Q 197.93 197.24 195.24 199.22
  Q 194.67 199.65 194.21 198.77"
/>
<path stroke="#6e28a6" vector-effect="non-scaling-stroke" d="
  M 193.51 162.39
  Q 193.81 162.46 194.12 162.53"
/>
<path stroke="#582587" vector-effect="non-scaling-stroke" d="
  M 197.20 339.91
  Q 197.27 340.03 196.88 340.34"
/>
<path stroke="#582587" vector-effect="non-scaling-stroke" d="
  M 175.76 250.91
  Q 193.57 250.65 209.08 242.23
  Q 209.55 241.98 209.16 241.61
  L 201.16 233.98"
/>
<path stroke="#412763" vector-effect="non-scaling-stroke" d="
  M 193.82 212.55
  Q 194.22 213.55 195.09 212.23"
/>
<path stroke="#7524b7" vector-effect="non-scaling-stroke" d="
  M 316.16 222.36
  Q 311.85 226.89 307.33 231.81
  Q 305.74 233.55 304.30 238.68
  Q 304.17 239.15 303.72 239.34
  Q 302.15 239.98 299.32 241.10
  Q 297.12 241.98 295.41 244.16
  Q 293.36 246.77 278.55 264.84
  Q 278.19 265.27 278.72 265.09
  Q 283.59 263.43 287.30 260.53
  Q 301.16 249.74 316.09 240.29
  C 320.56 237.46 325.53 233.43 329.25 230.50
  Q 333.81 226.91 339.30 226.72
  Q 339.90 226.70 339.52 227.17
  Q 333.46 234.48 325.88 240.89
  Q 324.49 242.06 320.34 246.56"
/>
<path stroke="#582587" vector-effect="non-scaling-stroke" d="
  M 320.34 246.56
  L 324.20 241.34
  Q 325.80 239.16 323.25 240.06
  C 319.92 241.23 317.46 243.29 314.78 246.26
  Q 303.82 258.43 300.30 261.81
  Q 293.84 268.02 281.40 277.32
  C 279.03 279.09 276.17 280.43 273.68 281.83
  Q 270.82 283.45 268.16 285.64
  Q 256.96 294.85 250.02 300.76
  Q 249.74 300.99 249.44 300.84
  Q 248.96 300.60 249.28 300.18
  Q 256.21 290.82 256.29 290.71
  Q 259.94 285.67 263.79 281.80
  Q 268.74 276.83 274.87 268.06
  C 278.69 262.58 283.49 257.33 288.26 251.58
  Q 290.08 249.39 290.89 247.27
  C 293.28 241.01 295.42 238.34 302.52 238.39
  A 0.62 0.62 0.0 0 0 303.14 237.71
  C 302.83 234.60 301.74 229.01 297.91 227.93
  C 294.50 226.97 294.50 224.78 295.51 221.72"
/>
<path stroke="#b290ce" vector-effect="non-scaling-stroke" d="
  M 295.51 221.72
  L 278.45 228.51
  A 0.30 0.30 0.0 0 1 278.06 228.14
  L 295.41 176.53"
/>
<path stroke="#412763" vector-effect="non-scaling-stroke" d="
  M 286.77 323.65
  Q 284.99 317.31 285.12 309.84
  A 0.60 0.59 -20.6 0 0 284.12 309.39
  C 280.27 312.89 276.63 315.52 271.78 318.20
  C 264.90 322.02 259.32 324.83 254.05 329.42
  Q 252.40 330.85 247.83 335.58
  C 244.82 338.69 242.16 340.25 237.75 343.23
  Q 234.36 345.53 232.85 347.42
  C 228.99 352.26 227.52 357.51 226.37 363.73"
/>
<path stroke="#412763" vector-effect="non-scaling-stroke" d="
  M 223.84 368.88
  Q 223.63 368.81 223.31 369.24"
/>
<path stroke="#64249d" vector-effect="non-scaling-stroke" d="
  M 187.89 219.56
  L 201.16 233.98"
/>
<path stroke="#7524b7" vector-effect="non-scaling-stroke" d="
  M 201.16 233.98
  Q 191.06 237.47 180.78 234.44
  Q 178.84 233.87 176.51 233.24"
/>
<path stroke="#8b27d6" vector-effect="non-scaling-stroke" d="
  M 176.51 233.24
  Q 171.51 228.58 178.39 236.84
  Q 179.79 238.50 183.35 241.05"
/>
<path stroke="#7524b7" vector-effect="non-scaling-stroke" d="
  M 183.35 241.05
  Q 179.56 241.35 176.20 240.70
  Q 173.66 240.21 168.69 242.83"
/>
<path stroke="#64249d" vector-effect="non-scaling-stroke" d="
  M 325.88 253.49
  C 319.43 254.85 314.84 258.02 309.85 260.96
  Q 306.77 262.79 305.09 264.45
  Q 303.98 265.55 301.29 269.04
  Q 298.43 272.74 286.84 284.46
  Q 286.68 284.62 286.56 284.46
  L 286.56 284.45
  Q 286.44 284.29 286.55 284.17
  Q 297.53 272.76 301.27 268.24
  Q 307.66 260.51 310.33 257.95
  Q 310.49 257.80 310.60 257.52
  C 310.76 257.10 310.86 256.70 311.20 256.33
  Q 315.72 251.40 320.34 246.56"
/>
<path stroke="#5e2693" vector-effect="non-scaling-stroke" d="
  M 350.86 208.74
  Q 350.99 208.90 351.12 209.06"
/>
<path stroke="#7f27bf" vector-effect="non-scaling-stroke" d="
  M 176.51 233.24
  L 183.35 241.05"
/>
<path stroke="#5e2693" vector-effect="non-scaling-stroke" d="
  M 151.46 201.15
  Q 151.36 201.20 151.27 201.24"
/>
<path stroke="#5e2693" vector-effect="non-scaling-stroke" d="
  M 391.03 182.10
  Q 390.93 182.05 390.82 182.00"
/>
<path stroke="#5e2693" vector-effect="non-scaling-stroke" d="
  M 320.55 171.41
  Q 319.67 172.05 319.21 171.48"
/>
<path stroke="#52277d" vector-effect="non-scaling-stroke" d="
  M 202.21 178.48
  L 202.32 179.54"
/>
<path stroke="#c993ed" vector-effect="non-scaling-stroke" d="
  M 283.6333 123.6446
  A 3.37 0.39 132.5 0 0 286.1975 121.4235
  A 3.37 0.39 132.5 0 0 288.1867 118.6754
  A 3.37 0.39 132.5 0 0 285.6225 120.8965
  A 3.37 0.39 132.5 0 0 283.6333 123.6446"
/>
<path stroke="#c993ed" vector-effect="non-scaling-stroke" d="
  M 276.9367 131.0645
  A 1.28 0.55 128.3 0 0 278.1616 130.4009
  A 1.28 0.55 128.3 0 0 278.5233 129.0555
  A 1.28 0.55 128.3 0 0 277.2984 129.7191
  A 1.28 0.55 128.3 0 0 276.9367 131.0645"
/>
<path stroke="#c993ed" vector-effect="non-scaling-stroke" d="
  M 273.5319 133.2388
  A 1.20 0.68 134.3 0 0 274.8567 132.8549
  A 1.20 0.68 134.3 0 0 275.2081 131.5212
  A 1.20 0.68 134.3 0 0 273.8833 131.9051
  A 1.20 0.68 134.3 0 0 273.5319 133.2388"
/>
<path stroke="#8b27d6" vector-effect="non-scaling-stroke" d="
  M 241.93 176.62
  Q 239.72 180.22 241.74 184.14
  A 1.03 1.03 0.0 0 0 243.34 184.43
  Q 244.46 183.42 246.27 181.15
  C 248.02 178.94 249.54 178.01 252.42 175.84
  Q 254.12 174.56 252.59 173.08
  L 252.39 172.88
  Q 250.70 171.24 248.93 172.79
  Q 246.19 175.18 242.42 176.25
  Q 242.10 176.34 241.93 176.62"
/>
<path stroke="#7f27bf" vector-effect="non-scaling-stroke" d="
  M 289.1575 163.4657
  A 2.22 0.65 133.3 0 0 291.1531 162.2958
  A 2.22 0.65 133.3 0 0 292.2025 160.2343
  A 2.22 0.65 133.3 0 0 290.2069 161.4042
  A 2.22 0.65 133.3 0 0 289.1575 163.4657"
/>
<path stroke="#682a9c" vector-effect="non-scaling-stroke" d="
  M 240.20 363.05
  L 239.78 363.48
  A 0.46 0.46 0.0 0 0 239.93 364.23
  Q 240.43 364.44 240.64 364.17
  Q 241.06 363.61 240.80 363.13
  A 0.38 0.37 52.3 0 0 240.20 363.05"
/>
</g>
<path fill="#8123cd" d="
  M 318.93 60.35
  A 0.13 0.13 0.0 0 1 319.11 60.29
  L 319.15 60.31
  A 2.52 1.84 -63.7 0 1 319.69 63.39
  L 319.45 63.87
  A 2.52 1.84 -63.7 0 1 316.68 65.31
  L 316.63 65.29
  A 0.13 0.13 0.0 0 1 316.58 65.12
  L 318.93 60.35
  Z"
/>
<path fill="#8123cd" d="
  M 342.15 66.60
  A 0.49 0.49 0.0 0 1 342.98 66.32
  Q 343.40 66.73 342.69 67.26
  A 0.28 0.28 0.0 0 1 342.28 67.19
  Q 342.10 66.92 342.15 66.60
  Z"
/>
<path fill="#952ade" d="
  M 323.13 74.97
  A 0.78 0.77 -2.9 0 1 323.83 74.20
  Q 325.05 74.06 325.50 74.60
  Q 325.90 75.06 325.47 75.50
  L 323.76 77.26
  Q 323.13 77.92 323.13 77.00
  L 323.13 74.97
  Z"
/>
<ellipse fill="#47256d" cx="0.00" cy="0.00" transform="translate(268.92,76.67) rotate(126.1)" rx="0.93" ry="0.25"/>
<path fill="#952ade" d="
  M 308.40 106.41
  Q 301.82 111.63 296.91 118.90
  Q 295.95 120.33 291.89 124.27
  Q 291.77 124.39 287.15 129.25
  Q 283.45 133.15 278.29 135.98
  Q 277.31 136.52 278.36 136.90
  Q 279.28 137.23 281.06 136.51
  Q 283.29 135.61 284.91 135.41
  Q 285.42 135.34 285.77 135.72
  Q 286.35 136.36 285.86 137.54
  C 284.51 139.11 283.38 140.48 282.46 142.41
  Q 274.49 159.14 268.03 176.45
  Q 264.59 181.36 260.03 184.31
  Q 252.30 189.32 246.20 193.93
  Q 241.79 197.27 240.82 199.33
  Q 238.44 204.41 237.89 205.59
  Q 236.88 207.75 230.70 212.96
  Q 225.41 217.42 219.63 221.05
  Q 217.43 222.42 213.92 222.95
  Q 213.39 223.03 213.59 222.53
  Q 215.27 218.36 217.13 214.77
  Q 218.41 212.31 222.66 208.44
  Q 223.63 207.56 230.72 200.95
  Q 231.73 200.01 230.35 200.05
  Q 226.75 200.17 223.57 202.57
  Q 220.59 204.83 214.44 210.20
  Q 213.57 210.96 211.41 211.05
  Q 210.90 211.07 210.89 210.57
  Q 210.82 207.88 209.37 205.62
  A 2.34 2.34 0.0 0 1 209.98 202.44
  Q 212.08 200.96 215.52 197.54
  Q 217.56 195.51 220.02 191.57
  Q 221.32 189.48 226.95 181.18
  Q 230.26 176.31 234.44 173.47
  C 237.20 172.19 240.15 171.34 241.32 168.28
  Q 242.11 166.21 242.14 166.15
  Q 244.97 160.91 249.25 158.20
  Q 249.67 157.93 249.74 157.44
  Q 250.71 151.16 252.39 148.64
  Q 254.49 145.49 256.57 142.33
  Q 256.64 142.22 256.76 142.28
  L 257.08 142.44
  Q 257.32 142.56 257.20 142.80
  L 250.81 155.64
  Q 250.15 156.95 251.47 156.31
  C 253.85 155.16 255.49 150.46 258.13 145.45
  Q 259.62 142.62 261.27 138.64
  Q 262.70 135.18 264.31 131.73
  Q 264.53 131.27 265.04 131.27
  Q 268.16 131.27 269.22 129.18
  C 271.22 125.23 272.00 122.22 276.53 121.76
  Q 277.03 121.70 277.24 121.25
  L 282.91 109.20
  L 283.32 109.47
  L 278.58 121.01
  Q 278.25 121.81 278.98 121.35
  Q 279.59 120.96 280.16 120.40
  C 281.77 118.78 282.94 116.03 286.08 114.70
  C 287.07 114.28 287.46 113.53 288.00 112.54
  A 0.91 0.84 16.6 0 1 288.88 112.11
  L 292.61 112.55
  A 0.63 0.26 -30.4 0 0 292.91 112.51
  Q 294.53 112.01 294.87 111.62
  Q 298.65 107.26 302.55 103.38
  Q 302.72 103.21 302.80 102.68
  Q 302.83 102.54 302.70 102.44
  Q 302.53 102.32 302.34 102.40
  Q 299.36 103.61 299.14 103.67
  Q 298.12 103.93 299.01 103.28
  Q 303.64 99.88 306.70 95.72
  Q 307.12 95.14 307.54 95.72
  Q 308.35 96.85 309.23 97.15
  A 0.81 0.79 30.4 0 0 310.08 96.94
  Q 314.64 92.04 316.86 85.15
  Q 317.01 84.66 317.45 84.42
  Q 319.77 83.12 320.50 80.71
  Q 320.67 80.14 321.26 80.14
  L 322.01 80.14
  Q 322.61 80.14 322.60 80.74
  Q 322.56 82.56 321.45 83.95
  Q 318.95 87.06 316.63 89.63
  Q 315.77 90.58 315.86 92.29
  Q 315.88 92.81 316.35 93.05
  L 317.15 93.44
  Q 317.53 93.63 317.16 93.85
  Q 314.57 95.38 315.05 98.30
  Q 315.13 98.79 314.95 99.26
  Q 314.12 101.39 312.67 103.16
  Q 310.56 105.74 308.40 106.41
  Z
  M 283.6333 123.6446
  A 3.37 0.39 132.5 0 0 286.1975 121.4235
  A 3.37 0.39 132.5 0 0 288.1867 118.6754
  A 3.37 0.39 132.5 0 0 285.6225 120.8965
  A 3.37 0.39 132.5 0 0 283.6333 123.6446
  Z
  M 276.9367 131.0645
  A 1.28 0.55 128.3 0 0 278.1616 130.4009
  A 1.28 0.55 128.3 0 0 278.5233 129.0555
  A 1.28 0.55 128.3 0 0 277.2984 129.7191
  A 1.28 0.55 128.3 0 0 276.9367 131.0645
  Z
  M 273.5319 133.2388
  A 1.20 0.68 134.3 0 0 274.8567 132.8549
  A 1.20 0.68 134.3 0 0 275.2081 131.5212
  A 1.20 0.68 134.3 0 0 273.8833 131.9051
  A 1.20 0.68 134.3 0 0 273.5319 133.2388
  Z
  M 268.1680 136.8117
  A 0.33 0.33 0.0 0 0 268.1428 136.3457
  L 268.1130 136.3189
  A 0.33 0.33 0.0 0 0 267.6470 136.3442
  L 262.8520 141.6883
  A 0.33 0.33 0.0 0 0 262.8772 142.1543
  L 262.9070 142.1811
  A 0.33 0.33 0.0 0 0 263.3730 142.1558
  L 268.1680 136.8117
  Z
  M 241.93 176.62
  Q 239.72 180.22 241.74 184.14
  A 1.03 1.03 0.0 0 0 243.34 184.43
  Q 244.46 183.42 246.27 181.15
  C 248.02 178.94 249.54 178.01 252.42 175.84
  Q 254.12 174.56 252.59 173.08
  L 252.39 172.88
  Q 250.70 171.24 248.93 172.79
  Q 246.19 175.18 242.42 176.25
  Q 242.10 176.34 241.93 176.62
  Z"
/>
<ellipse fill="#952ade" cx="0.00" cy="0.00" transform="translate(266.10,84.21) rotate(122.4)" rx="2.92" ry="0.90"/>
<path fill="#952ade" d="
  M 244.00 123.22
  Q 244.91 120.57 245.13 120.00
  Q 247.02 115.32 243.58 118.93
  Q 240.23 122.44 240.53 128.40
  Q 240.56 128.97 240.93 128.54
  L 242.25 127.00
  Q 239.84 132.17 236.92 136.99
  Q 236.80 137.18 234.73 141.04
  Q 233.50 143.34 232.25 145.00
  Q 231.05 146.59 230.93 148.85
  Q 230.90 149.34 230.42 149.46
  C 227.54 150.16 224.98 157.27 224.32 159.45
  Q 224.17 159.95 223.78 160.30
  Q 222.74 161.23 222.47 162.67
  Q 222.37 163.18 222.00 163.54
  Q 218.18 167.38 216.47 172.44
  Q 215.15 173.07 214.21 174.07
  Q 213.87 174.44 213.87 174.94
  Q 213.89 177.10 213.61 177.86
  Q 212.31 181.41 211.37 185.08
  C 210.73 187.60 209.65 189.12 207.88 190.63
  Q 204.28 193.70 200.90 195.58
  Q 197.93 197.24 195.24 199.22
  Q 194.67 199.65 194.21 198.77
  C 196.40 195.65 195.97 191.79 196.06 188.07
  A 0.50 0.49 -67.5 0 1 196.90 187.72
  L 198.33 189.10
  A 0.89 0.89 0.0 0 0 199.79 188.77
  Q 200.46 186.96 200.31 184.41
  Q 200.27 183.87 200.73 183.57
  Q 206.58 179.76 209.36 170.19
  A 1.02 1.02 0.0 0 0 208.40 168.89
  C 206.92 168.85 205.19 169.77 204.14 170.85
  Q 198.94 176.21 191.95 178.34
  Q 191.54 178.46 191.33 178.09
  L 190.71 177.01
  Q 190.33 176.36 189.81 176.90
  L 188.47 178.28
  A 0.45 0.44 -43.7 0 1 187.83 178.27
  Q 187.72 178.14 187.63 177.96
  Q 187.57 177.83 187.67 177.54
  Q 190.49 169.81 193.51 162.39
  Q 193.81 162.46 194.12 162.53
  Q 192.90 164.88 194.79 166.19
  Q 195.21 166.48 195.72 166.38
  Q 200.19 165.50 204.60 164.09
  C 206.16 163.59 207.69 161.50 209.31 160.45
  Q 213.59 157.68 216.54 153.08
  C 218.55 149.96 219.93 148.14 218.79 144.70
  A 2.04 2.03 -36.0 0 1 219.09 142.85
  Q 220.95 140.32 223.33 137.70
  C 225.17 135.67 228.19 134.48 230.33 132.41
  Q 232.50 130.31 231.46 133.14
  Q 230.64 135.37 229.21 137.87
  Q 228.60 138.95 226.14 142.09
  Q 223.51 145.47 222.08 149.41
  Q 221.75 150.31 222.57 149.86
  L 227.76 146.97
  Q 228.96 146.30 227.56 145.93
  Q 227.41 145.89 227.16 146.13
  Q 226.69 146.60 226.85 145.95
  Q 226.97 145.44 227.64 145.45
  Q 230.88 145.50 231.77 142.52
  C 232.27 140.83 232.46 140.03 233.21 138.83
  Q 237.11 132.59 238.85 125.66
  Q 240.52 118.98 241.79 116.88
  Q 242.07 116.42 241.74 115.99
  Q 240.70 114.61 241.49 113.04
  Q 243.34 109.36 245.63 105.77
  C 246.92 103.73 249.43 102.61 251.22 101.36
  Q 251.66 101.06 251.82 100.56
  L 253.35 95.73
  Q 253.50 95.25 253.92 94.99
  Q 257.21 92.94 258.51 89.63
  Q 259.21 87.86 259.50 89.74
  Q 259.61 90.47 259.74 91.59
  Q 259.81 92.24 259.44 93.38
  Q 256.77 101.61 252.47 107.85
  Q 250.14 111.22 248.07 115.42
  Q 246.13 119.35 244.00 123.22
  Z"
/>
<path fill="#6824a0" d="
  M 299.49 98.30
  L 298.68 98.38
  A 0.35 0.35 0.0 0 1 298.33 97.88
  L 299.88 94.77
  A 0.63 0.63 0.0 0 1 300.72 94.49
  L 301.10 94.68
  A 0.57 0.56 -61.3 0 1 301.33 95.48
  Q 300.66 96.58 300.52 97.99
  Q 300.48 98.31 300.16 98.37
  Q 300.00 98.39 299.81 98.33
  Q 299.65 98.28 299.49 98.30
  Z"
/>
<ellipse fill="#47256d" cx="0.00" cy="0.00" transform="translate(320.13,98.01) rotate(119.7)" rx="0.81" ry="0.61"/>
<path fill="#952ade" d="
  M 328.18 145.44
  Q 327.26 145.21 326.72 145.72
  Q 325.15 147.25 323.30 149.67
  Q 321.52 152.01 319.90 153.58
  Q 306.79 166.29 304.44 169.19
  Q 301.30 173.07 297.86 176.71
  A 1.07 1.05 -65.7 0 1 297.01 177.04
  Q 296.08 176.96 295.41 176.53
  L 295.70 174.85
  Q 295.79 174.32 295.37 174.67
  L 288.80 180.23
  Q 285.97 177.32 288.62 174.11
  Q 290.15 172.25 295.27 167.10
  Q 298.10 164.25 301.79 159.98
  Q 306.54 154.46 311.01 149.76
  Q 311.75 148.98 315.33 144.24
  Q 315.64 143.84 315.65 143.33
  Q 315.68 141.36 314.99 139.47
  Q 314.83 139.00 315.04 138.56
  Q 315.71 137.14 315.34 135.93
  Q 321.50 133.15 324.28 126.94
  Q 324.49 126.48 324.18 126.07
  Q 323.42 125.06 322.36 125.85
  Q 318.00 129.10 313.12 134.66
  Q 311.47 140.96 305.71 147.22
  Q 302.14 151.09 298.11 154.67
  Q 296.62 156.00 297.44 154.18
  L 301.09 146.14
  Q 301.34 145.58 300.86 145.96
  L 292.48 152.58
  Q 289.69 153.76 288.48 156.78
  Q 288.30 157.53 287.71 158.31
  Q 287.01 159.22 286.82 159.71
  Q 282.85 169.76 278.89 176.69
  Q 278.25 177.80 275.98 178.91
  C 275.13 179.33 274.59 179.96 274.02 180.43
  Q 273.36 180.97 273.02 181.94
  Q 270.20 190.14 265.47 197.21
  A 0.47 0.47 0.0 0 1 264.62 197.05
  Q 264.51 196.54 264.86 195.76
  Q 265.92 193.41 266.65 190.97
  Q 267.90 186.81 268.14 186.12
  Q 270.77 178.61 273.33 171.08
  Q 273.79 169.73 276.87 162.44
  Q 277.54 160.84 278.15 160.07
  Q 278.99 159.00 279.40 157.66
  Q 279.71 156.63 280.65 155.83
  Q 281.58 155.03 282.53 154.55
  C 285.86 153.06 290.88 149.68 291.84 145.92
  Q 291.91 145.66 292.23 145.29
  L 302.31 139.31
  Q 302.73 139.06 302.59 138.59
  Q 302.19 137.14 302.70 135.91
  Q 302.89 135.45 303.39 135.44
  Q 306.76 135.42 307.54 134.31
  Q 311.10 129.28 312.66 128.39
  Q 323.87 121.97 325.29 120.55
  Q 328.93 116.92 332.83 114.55
  C 334.33 113.65 335.20 112.10 336.61 111.37
  Q 339.61 109.83 341.42 108.41
  Q 341.84 108.07 342.30 108.37
  Q 343.00 108.83 343.10 109.21
  A 0.96 0.77 -33.4 0 0 344.59 109.35
  L 356.17 97.67
  Q 356.43 97.41 356.65 97.72
  L 356.95 98.15
  Q 357.09 98.35 356.91 98.51
  Q 350.37 104.20 344.65 110.84
  Q 343.69 111.96 343.07 113.36
  Q 342.52 114.59 341.07 115.79
  Q 340.67 116.13 340.88 116.62
  L 341.72 118.56
  Q 341.90 118.99 341.36 119.29
  C 340.43 119.82 338.45 120.79 337.36 121.77
  Q 332.99 125.74 328.75 130.26
  Q 328.10 130.94 327.86 131.81
  Q 327.48 133.16 327.68 133.64
  Q 328.45 135.43 330.05 134.32
  Q 332.68 132.48 334.43 130.35
  Q 337.94 126.07 337.98 126.02
  Q 340.37 123.59 343.02 120.93
  A 0.39 0.38 -22.6 0 1 343.68 121.20
  L 343.68 121.57
  Q 343.68 122.26 343.20 122.75
  Q 335.93 130.35 332.06 135.56
  C 331.22 136.70 331.35 139.42 332.49 140.54
  Q 333.11 141.15 333.92 142.02
  Q 334.28 142.40 333.90 142.76
  Q 333.31 143.33 332.30 143.73
  Q 331.81 143.92 331.43 143.56
  L 330.65 142.79
  A 0.89 0.89 0.0 0 0 329.22 143.07
  L 328.18 145.44
  Z
  M 340.94 114.43
  Q 343.51 113.41 342.42 111.05
  A 1.11 1.11 0.0 0 0 340.94 110.51
  Q 337.56 112.10 336.93 114.26
  Q 336.78 114.77 337.27 114.97
  Q 338.43 115.43 340.94 114.43
  Z
  M 301.6096 143.2623
  A 2.16 0.45 132.9 0 0 303.4096 141.9863
  A 2.16 0.45 132.9 0 0 304.5504 140.0977
  A 2.16 0.45 132.9 0 0 302.7504 141.3737
  A 2.16 0.45 132.9 0 0 301.6096 143.2623
  Z"
/>
<path fill="#3b2959" d="
  M 288.82 100.31
  Q 288.53 100.73 288.06 100.82
  A 0.39 0.39 0.0 0 1 287.65 100.24
  Q 288.10 99.46 288.98 99.39
  Q 289.72 99.33 289.22 99.87
  C 289.06 100.04 288.98 100.09 288.82 100.31
  Z"
/>
<path fill="#6824a0" d="
  M 295.35 101.49
  Q 294.85 100.38 295.16 99.71
  A 0.67 0.65 -68.3 0 1 295.95 99.36
  Q 296.20 99.44 296.29 99.70
  Q 296.38 99.96 296.26 100.20
  L 295.62 101.49
  A 0.15 0.15 0.0 0 1 295.35 101.49
  Z"
/>
<path fill="#47256d" d="
  M 283.32 109.47
  L 282.91 109.20
  L 285.89 102.31
  A 0.29 0.28 20.2 0 1 286.24 102.15
  L 286.50 102.23
  Q 286.79 102.32 286.65 102.59
  L 283.32 109.47
  Z"
/>
<path fill="#8123cd" d="
  M 308.40 106.41
  Q 307.11 110.40 303.15 116.63
  Q 300.44 120.89 299.15 128.53
  Q 299.07 129.02 298.70 129.36
  L 291.83 135.70
  L 285.86 137.54
  Q 286.35 136.36 285.77 135.72
  Q 285.42 135.34 284.91 135.41
  Q 283.29 135.61 281.06 136.51
  Q 279.28 137.23 278.36 136.90
  Q 277.31 136.52 278.29 135.98
  Q 283.45 133.15 287.15 129.25
  Q 291.77 124.39 291.89 124.27
  Q 295.95 120.33 296.91 118.90
  Q 301.82 111.63 308.40 106.41
  Z"
/>
<path fill="#3b2959" d="
  M 309.46 108.96
  Q 309.76 108.65 309.70 109.22
  A 0.19 0.19 0.0 0 1 309.37 109.32
  Q 309.25 109.17 309.46 108.96
  Z"
/>
<path fill="#3b2959" d="
  M 350.68 109.05
  Q 350.75 108.69 351.12 109.09
  A 0.22 0.22 0.0 0 1 350.99 109.46
  Q 350.59 109.51 350.68 109.05
  Z"
/>
<path fill="#47256d" d="
  M 261.47 112.47
  A 0.14 0.13 -14.1 0 1 261.26 112.35
  Q 261.34 111.40 261.99 110.72
  A 0.34 0.34 0.0 0 1 262.54 110.81
  Q 262.91 111.57 261.47 112.47
  Z"
/>
<path fill="#8123cd" d="
  M 250.84 123.14
  C 251.84 120.96 254.01 120.21 255.50 118.43
  Q 257.17 116.44 259.50 114.46
  Q 259.81 114.20 259.72 114.60
  Q 259.67 114.81 259.68 114.85
  Q 259.69 114.93 259.61 115.02
  Q 256.74 118.60 253.26 123.08
  A 2.01 1.97 -73.2 0 1 251.89 123.83
  L 251.37 123.88
  Q 250.45 123.97 250.84 123.14
  Z"
/>
<path fill="#3b2959" d="
  M 118.56 116.48
  A 6.85 0.09 44.8 0 1 117.68 115.55
  A 6.85 0.09 44.8 0 0 118.56 116.48
  Z"
/>
<path fill="#3b2959" d="
  M 118.56 116.48
  A 6.82 0.09 44.9 0 0 127.01 124.88
  A 1.13 0.37 10.8 0 0 126.94 124.82
  A 6.81 0.09 45.0 0 1 118.56 116.48
  Z"
/>
<path fill="#3b2959" d="
  M 262.46 117.58
  Q 262.29 117.31 262.49 117.38
  Q 262.66 117.45 262.55 117.59
  A 0.06 0.05 50.4 0 1 262.46 117.58
  Z"
/>
<path fill="#3b2959" d="
  M 393.97 118.09
  Q 394.15 117.46 394.63 117.37
  Q 394.32 117.74 393.97 118.09
  Z"
/>
<path fill="#3b2959" d="
  M 393.97 118.09
  L 364.42 146.85
  Q 364.81 146.03 365.05 145.78
  Q 368.50 142.16 371.65 139.41
  Q 376.65 135.05 381.29 130.30
  Q 389.97 121.43 392.71 118.94
  Q 393.28 118.42 393.97 118.09
  Z"
/>
<ellipse fill="#fcfcfc" cx="0.00" cy="0.00" transform="translate(285.91,121.16) rotate(132.5)" rx="3.37" ry="0.39"/>
<path fill="#47256d" d="
  M 308.32 119.09
  Q 308.43 118.79 308.67 118.61
  Q 309.13 118.26 309.48 118.73
  Q 309.81 119.18 309.56 119.80
  Q 309.15 120.79 307.63 120.36
  A 0.36 0.36 0.0 0 1 307.48 119.75
  Q 307.79 119.44 308.32 119.09
  Z"
/>
<ellipse fill="#3b2959" cx="0.00" cy="0.00" transform="translate(351.91,120.41) rotate(102.7)" rx="1.19" ry="0.77"/>
<path fill="#6824a0" d="
  M 244.00 123.22
  Q 243.94 123.77 243.66 124.30
  Q 243.23 125.07 243.39 124.21
  Q 243.48 123.67 244.00 123.22
  Z"
/>
<rect fill="#3b2959" x="-17.32" y="-0.18" transform="translate(139.89,137.40) rotate(43.9)" width="34.64" height="0.36" rx="0.18"/>
<path fill="#8123cd" d="
  M 235.68 125.40
  Q 235.92 125.58 235.64 125.96
  Q 233.63 128.68 233.39 128.50
  Q 233.15 128.33 235.16 125.60
  Q 235.44 125.22 235.68 125.40
  Z"
/>
<path fill="#6824a0" d="
  M 242.25 127.00
  Q 242.35 126.50 242.67 126.02
  Q 242.77 126.55 242.25 127.00
  Z"
/>
<path fill="#3b2959" d="
  M 211.80 127.51
  Q 211.67 127.98 211.38 128.36
  Q 211.22 127.71 211.80 127.51
  Z"
/>
<ellipse fill="#fcfcfc" cx="0.00" cy="0.00" transform="translate(277.73,130.06) rotate(128.3)" rx="1.28" ry="0.55"/>
<path fill="#3b2959" d="
  M 210.47 129.74
  Q 210.56 129.63 210.62 129.48
  A 0.09 0.09 0.0 0 1 210.79 129.54
  Q 210.70 129.87 210.51 130.15
  Q 210.40 130.30 210.34 130.13
  Q 210.29 129.96 210.47 129.74
  Z"
/>
<path fill="#3b2959" d="
  M 209.60 131.43
  Q 209.78 131.28 209.77 131.52
  Q 209.76 131.71 209.59 131.94
  Q 209.03 132.69 209.28 131.86
  Q 209.34 131.66 209.60 131.43
  Z"
/>
<ellipse fill="#fcfcfc" cx="0.00" cy="0.00" transform="translate(274.37,132.38) rotate(134.3)" rx="1.20" ry="0.68"/>
<circle fill="#3b2959" cx="147.99" cy="134.01" r="0.85"/>
<path fill="#3b2959" d="
  M 201.04 147.02
  Q 204.10 139.81 208.57 133.37
  Q 208.63 133.28 208.70 133.30
  Q 208.72 133.31 208.74 133.31
  Q 208.79 133.33 208.77 133.37
  L 201.04 147.02
  Z"
/>
<path fill="#6824a0" d="
  M 315.34 135.93
  Q 315.71 137.14 315.04 138.56
  Q 314.83 139.00 314.99 139.47
  Q 315.68 141.36 315.65 143.33
  Q 315.64 143.84 315.33 144.24
  Q 311.75 148.98 311.01 149.76
  Q 306.54 154.46 301.79 159.98
  Q 298.10 164.25 295.27 167.10
  Q 290.15 172.25 288.62 174.11
  Q 285.97 177.32 288.80 180.23
  L 230.74 240.17
  Q 229.36 241.59 229.90 239.68
  Q 232.45 230.59 234.39 225.01
  Q 235.66 221.36 237.77 216.93
  Q 239.66 212.97 241.49 208.99
  Q 246.01 210.22 250.35 209.93
  Q 257.43 209.44 259.44 202.70
  Q 262.50 192.37 266.30 182.30
  Q 266.86 180.83 267.23 179.39
  Q 267.60 177.92 268.03 176.45
  Q 274.49 159.14 282.46 142.41
  C 283.38 140.48 284.51 139.11 285.86 137.54
  L 291.83 135.70
  Q 285.43 145.00 282.06 153.75
  Q 281.90 154.16 282.53 154.55
  Q 281.58 155.03 280.65 155.83
  Q 279.71 156.63 279.40 157.66
  Q 278.99 159.00 278.15 160.07
  Q 277.54 160.84 276.87 162.44
  Q 273.79 169.73 273.33 171.08
  Q 270.77 178.61 268.14 186.12
  Q 267.90 186.81 266.65 190.97
  Q 265.92 193.41 264.86 195.76
  Q 264.51 196.54 264.62 197.05
  A 0.47 0.47 0.0 0 0 265.47 197.21
  Q 270.20 190.14 273.02 181.94
  Q 273.36 180.97 274.02 180.43
  C 274.59 179.96 275.13 179.33 275.98 178.91
  Q 278.25 177.80 278.89 176.69
  Q 282.85 169.76 286.82 159.71
  Q 287.01 159.22 287.71 158.31
  Q 288.30 157.53 288.48 156.78
  Q 290.83 155.00 292.48 152.58
  L 300.86 145.96
  Q 301.34 145.58 301.09 146.14
  L 297.44 154.18
  Q 296.62 156.00 298.11 154.67
  Q 302.14 151.09 305.71 147.22
  Q 311.47 140.96 313.12 134.66
  L 315.34 135.93
  Z
  M 289.1575 163.4657
  A 2.22 0.65 133.3 0 0 291.1531 162.2958
  A 2.22 0.65 133.3 0 0 292.2025 160.2343
  A 2.22 0.65 133.3 0 0 290.2069 161.4042
  A 2.22 0.65 133.3 0 0 289.1575 163.4657
  Z"
/>
<path fill="#8123cd" d="
  M 234.44 173.47
  Q 230.26 176.31 226.95 181.18
  Q 221.32 189.48 220.02 191.57
  Q 217.56 195.51 215.52 197.54
  Q 212.08 200.96 209.98 202.44
  A 2.34 2.34 0.0 0 0 209.37 205.62
  Q 210.82 207.88 210.89 210.57
  Q 210.90 211.07 211.41 211.05
  Q 213.57 210.96 214.44 210.20
  Q 220.59 204.83 223.57 202.57
  Q 226.75 200.17 230.35 200.05
  Q 231.73 200.01 230.72 200.95
  Q 223.63 207.56 222.66 208.44
  Q 218.41 212.31 217.13 214.77
  Q 215.27 218.36 213.59 222.53
  Q 213.39 223.03 213.92 222.95
  Q 217.43 222.42 219.63 221.05
  Q 225.41 217.42 230.70 212.96
  Q 236.88 207.75 237.89 205.59
  Q 238.44 204.41 240.82 199.33
  Q 241.79 197.27 246.20 193.93
  Q 252.30 189.32 260.03 184.31
  Q 264.59 181.36 268.03 176.45
  Q 267.60 177.92 267.23 179.39
  Q 266.86 180.83 266.30 182.30
  Q 262.50 192.37 259.44 202.70
  Q 257.43 209.44 250.35 209.93
  Q 246.01 210.22 241.49 208.99
  L 249.36 196.90
  Q 250.13 195.71 249.03 196.60
  Q 248.24 197.24 247.19 198.43
  Q 243.50 202.63 237.60 211.36
  Q 234.92 215.33 226.66 222.43
  Q 224.74 224.07 224.05 228.85
  Q 221.59 230.48 218.99 231.80
  Q 216.18 233.23 214.90 232.78
  Q 210.43 231.24 206.29 233.04
  Q 205.83 233.24 205.93 232.75
  Q 208.23 221.77 209.94 213.74
  Q 210.06 213.20 210.12 211.50
  Q 210.14 210.99 209.70 210.73
  Q 207.18 209.29 206.66 209.25
  Q 200.98 208.85 196.40 206.67
  Q 195.44 203.78 193.87 201.27
  Q 193.40 200.51 193.49 200.02
  Q 193.62 199.41 194.21 198.77
  Q 194.67 199.65 195.24 199.22
  Q 197.93 197.24 200.90 195.58
  Q 204.28 193.70 207.88 190.63
  C 209.65 189.12 210.73 187.60 211.37 185.08
  Q 212.31 181.41 213.61 177.86
  Q 213.89 177.10 213.87 174.94
  Q 213.87 174.44 214.21 174.07
  Q 215.15 173.07 216.47 172.44
  Q 219.48 172.02 215.70 173.76
  A 1.49 1.49 0.0 0 0 215.29 176.18
  C 216.93 177.77 218.17 177.64 219.92 176.15
  Q 226.80 170.32 228.58 168.85
  Q 231.53 166.42 233.84 159.55
  Q 234.01 159.03 233.53 158.77
  Q 232.41 158.14 231.38 158.89
  Q 231.27 158.97 231.24 158.93
  L 231.07 158.78
  Q 231.00 158.71 231.06 158.67
  Q 232.91 157.46 234.76 157.08
  A 1.18 1.18 0.0 0 0 235.67 156.17
  Q 236.47 152.17 238.92 148.12
  A 0.85 0.85 0.0 0 0 238.26 146.83
  Q 237.39 146.76 236.70 146.23
  Q 236.33 145.94 236.54 145.52
  L 239.34 139.91
  Q 239.57 139.43 240.09 139.31
  Q 242.07 138.83 243.70 137.22
  A 0.51 0.50 67.6 0 1 244.56 137.58
  Q 244.54 140.04 243.59 142.11
  C 242.27 144.97 240.68 147.07 239.56 150.24
  Q 237.93 154.82 237.16 155.89
  Q 235.84 157.70 235.52 158.52
  Q 233.95 162.56 231.90 166.45
  Q 231.67 166.87 231.70 167.58
  Q 231.72 168.39 231.71 168.77
  Q 231.62 170.96 233.01 169.25
  Q 233.63 168.49 235.11 167.86
  Q 235.67 167.62 235.55 168.22
  L 234.44 173.47
  Z"
/>
<path fill="#3b2959" d="
  M 350.46 139.72
  Q 350.75 139.39 350.72 140.01
  A 0.20 0.20 0.0 0 1 350.35 140.10
  Q 350.25 139.95 350.46 139.72
  Z"
/>
<path fill="#47256d" d="
  M 292.23 145.29
  Q 291.91 145.66 291.84 145.92
  Q 289.98 146.82 288.66 146.31
  A 0.55 0.55 0.0 0 1 288.35 145.56
  Q 288.66 144.88 289.24 144.42
  Q 289.76 144.01 289.87 144.66
  Q 289.94 145.11 289.48 145.27
  A 0.18 0.17 -57.3 0 0 289.55 145.61
  L 292.23 145.29
  Z"
/>
<path fill="#6824a0" d="
  M 328.18 145.44
  Q 328.47 147.69 329.52 149.15
  A 2.23 2.22 35.9 0 1 329.84 151.13
  L 327.85 157.39
  A 0.74 0.74 0.0 0 0 328.21 158.26
  Q 330.04 159.23 331.01 160.77
  Q 331.25 161.16 331.17 161.62
  Q 330.74 163.81 329.08 165.42
  A 1.11 1.10 22.7 0 1 328.31 165.73
  L 323.00 165.73
  Q 322.47 165.73 322.03 166.03
  Q 319.44 167.77 317.86 170.83
  Q 315.72 174.97 315.39 175.53
  Q 313.65 178.47 312.85 181.55
  A 1.85 1.82 77.8 0 1 312.26 182.48
  Q 309.72 184.55 309.77 189.24
  A 1.43 1.39 -25.8 0 1 309.43 190.18
  Q 307.38 192.53 307.47 195.86
  Q 307.48 196.40 307.06 196.74
  Q 305.66 197.90 304.97 199.39
  C 303.07 203.48 298.18 206.73 298.68 210.24
  A 0.72 0.72 0.0 0 0 299.82 210.72
  Q 301.41 209.54 302.84 209.44
  Q 303.36 209.40 303.74 209.75
  Q 306.10 211.88 309.45 213.20
  A 0.42 0.42 0.0 0 0 310.01 212.71
  Q 309.66 211.26 308.62 210.17
  Q 308.30 209.83 308.71 209.59
  L 310.87 208.34
  Q 311.31 208.09 311.79 208.27
  Q 313.66 209.01 314.79 208.26
  Q 315.28 207.93 315.28 207.35
  L 315.28 205.46
  Q 315.28 204.82 315.72 204.37
  L 320.53 199.42
  Q 320.71 199.24 320.75 199.49
  Q 320.78 199.66 320.61 199.73
  Q 320.43 199.81 320.36 199.98
  Q 319.05 203.05 317.34 205.60
  Q 314.12 210.38 313.83 210.92
  Q 311.76 214.68 310.82 217.10
  A 1.21 1.20 8.0 0 0 312.06 218.74
  L 317.22 218.24
  A 0.52 0.52 0.0 0 1 317.65 219.10
  Q 316.15 220.78 316.16 222.36
  Q 311.85 226.89 307.33 231.81
  Q 305.74 233.55 304.30 238.68
  Q 304.17 239.15 303.72 239.34
  Q 302.15 239.98 299.32 241.10
  Q 297.12 241.98 295.41 244.16
  Q 293.36 246.77 278.55 264.84
  Q 278.19 265.27 278.72 265.09
  Q 283.59 263.43 287.30 260.53
  Q 301.16 249.74 316.09 240.29
  C 320.56 237.46 325.53 233.43 329.25 230.50
  Q 333.81 226.91 339.30 226.72
  Q 339.90 226.70 339.52 227.17
  Q 333.46 234.48 325.88 240.89
  Q 324.49 242.06 320.34 246.56
  L 324.20 241.34
  Q 325.80 239.16 323.25 240.06
  C 319.92 241.23 317.46 243.29 314.78 246.26
  Q 303.82 258.43 300.30 261.81
  Q 293.84 268.02 281.40 277.32
  C 279.03 279.09 276.17 280.43 273.68 281.83
  Q 270.82 283.45 268.16 285.64
  Q 256.96 294.85 250.02 300.76
  Q 249.74 300.99 249.44 300.84
  Q 248.96 300.60 249.28 300.18
  Q 256.21 290.82 256.29 290.71
  Q 259.94 285.67 263.79 281.80
  Q 268.74 276.83 274.87 268.06
  C 278.69 262.58 283.49 257.33 288.26 251.58
  Q 290.08 249.39 290.89 247.27
  C 293.28 241.01 295.42 238.34 302.52 238.39
  A 0.62 0.62 0.0 0 0 303.14 237.71
  C 302.83 234.60 301.74 229.01 297.91 227.93
  C 294.50 226.97 294.50 224.78 295.51 221.72
  L 278.45 228.51
  A 0.30 0.30 0.0 0 1 278.06 228.14
  L 295.41 176.53
  Q 296.08 176.96 297.01 177.04
  A 1.07 1.05 -65.7 0 0 297.86 176.71
  Q 301.30 173.07 304.44 169.19
  Q 306.79 166.29 319.90 153.58
  Q 321.52 152.01 323.30 149.67
  Q 325.15 147.25 326.72 145.72
  Q 327.26 145.21 328.18 145.44
  Z"
/>
<path fill="#3b2959" d="
  M 201.04 147.02
  Q 200.85 147.93 200.35 148.50
  Q 200.10 148.79 200.17 148.41
  Q 200.32 147.57 201.04 147.02
  Z"
/>
<path fill="#3b2959" d="
  M 364.42 146.85
  Q 364.57 147.38 364.17 147.62
  Q 364.34 147.26 364.42 146.85
  Z"
/>
<path fill="#3b2959" d="
  M 363.22 148.97
  C 362.92 149.23 362.57 149.62 362.38 149.75
  Q 361.91 150.05 362.27 149.62
  Q 362.93 148.83 363.32 148.50
  Q 363.83 148.09 363.50 148.64
  Q 363.39 148.83 363.22 148.97
  Z"
/>
<path fill="#6824a0" d="
  M 245.40 149.98
  Q 245.59 149.42 246.29 148.75
  Q 246.65 148.40 246.63 148.90
  Q 246.59 149.65 245.70 150.22
  Q 245.20 150.54 245.40 149.98
  Z"
/>
<path fill="#3b2959" d="
  M 199.31 149.95
  Q 199.31 149.94 199.54 149.48
  Q 200.03 148.52 199.85 149.60
  Q 199.81 149.90 199.56 150.16
  Q 198.92 150.86 199.31 149.95
  Z"
/>
<path fill="#3b2959" d="
  M 198.67 151.65
  Q 198.79 151.93 198.57 152.15
  Q 198.35 152.37 198.35 152.07
  Q 198.35 151.88 198.35 151.71
  A 0.17 0.17 0.0 0 1 198.67 151.65
  Z"
/>
<path fill="#6824a0" d="
  M 241.79 153.80
  Q 241.31 154.22 240.75 154.51
  Q 240.61 154.58 240.51 154.54
  Q 240.38 154.50 240.35 154.35
  Q 240.33 154.30 240.38 154.27
  Q 241.01 153.90 241.50 153.47
  Q 241.98 153.03 242.42 152.45
  Q 242.46 152.40 242.50 152.43
  Q 242.65 152.47 242.67 152.61
  Q 242.70 152.71 242.62 152.84
  Q 242.27 153.37 241.79 153.80
  Z"
/>
<path fill="#3b2959" d="
  M 337.82 152.57
  A 0.28 0.27 6.9 0 1 338.22 152.26
  Q 338.68 152.50 338.71 152.96
  A 0.29 0.28 -72.3 0 1 338.25 153.20
  Q 337.93 152.95 337.82 152.57
  Z"
/>
<path fill="#47256d" d="
  M 194.12 162.53
  Q 193.81 162.46 193.51 162.39
  L 197.12 155.36
  Q 197.20 155.21 197.33 155.31
  Q 197.46 155.39 197.40 155.52
  L 194.12 162.53
  Z"
/>
<path fill="#3b2959" d="
  M 239.37 159.72
  Q 239.46 159.41 239.65 159.67
  Q 239.91 160.01 239.49 160.11
  Q 239.24 160.17 239.37 159.72
  Z"
/>
<ellipse fill="#952ade" cx="0.00" cy="0.00" transform="translate(290.68,161.85) rotate(133.3)" rx="2.22" ry="0.65"/>
<ellipse fill="#8123cd" cx="0.00" cy="0.00" transform="translate(189.81,162.15) rotate(113.9)" rx="2.01" ry="1.68"/>
<path fill="#3b2959" d="
  M 228.94 162.77
  L 228.52 162.66
  Q 228.33 162.62 228.49 162.51
  Q 228.61 162.44 228.77 162.48
  Q 229.02 162.55 228.94 162.77
  Z"
/>
<path fill="#3b2959" d="
  M 228.94 162.77
  Q 229.39 162.82 229.64 163.13
  Q 229.74 163.26 229.68 163.37
  Q 229.56 163.60 229.38 163.43
  Q 229.11 163.18 228.94 162.77
  Z"
/>
<path fill="#47256d" d="
  M 218.36 171.38
  Q 218.11 171.59 218.06 171.37
  L 218.05 171.36
  Q 218.00 171.13 218.06 171.06
  Q 221.03 168.25 224.14 165.38
  Q 225.45 164.17 224.28 165.52
  Q 221.66 168.55 218.36 171.38
  Z"
/>
<path fill="#6824a0" d="
  M 334.44 166.27
  Q 335.05 166.16 335.43 166.57
  Q 335.79 166.96 335.60 167.45
  Q 335.14 168.63 334.85 168.68
  Q 334.56 168.73 333.73 167.77
  Q 333.39 167.37 333.60 166.88
  Q 333.82 166.37 334.44 166.27
  Z"
/>
<path fill="#6824a0" d="
  M 188.29 168.15
  A 0.45 0.45 0.0 0 1 188.32 168.79
  L 187.59 169.59
  A 1.09 1.09 0.0 0 1 186.05 169.66
  L 185.92 169.54
  A 1.09 1.09 0.0 0 1 185.85 168.00
  L 186.58 167.20
  A 0.45 0.45 0.0 0 1 187.21 167.17
  L 188.29 168.15
  Z"
/>
<path fill="#3b2959" d="
  M 320.55 171.41
  Q 319.67 172.05 319.21 171.48
  Q 319.87 171.19 320.55 171.41
  Z"
/>
<path fill="#8123cd" d="
  M 319.21 171.48
  Q 319.67 172.05 320.55 171.41
  Q 321.89 171.51 322.79 172.79
  A 0.39 0.39 0.0 0 1 322.47 173.40
  L 321.63 173.40
  Q 321.30 173.40 321.06 173.64
  L 319.37 175.38
  A 1.24 1.24 0.0 0 1 317.24 174.46
  Q 317.32 172.68 319.21 171.48
  Z"
/>
<path fill="#8123cd" d="
  M 241.93 176.62
  Q 242.10 176.34 242.42 176.25
  Q 246.19 175.18 248.93 172.79
  Q 250.70 171.24 252.39 172.88
  L 252.59 173.08
  Q 254.12 174.56 252.42 175.84
  C 249.54 178.01 248.02 178.94 246.27 181.15
  Q 244.46 183.42 243.34 184.43
  A 1.03 1.03 0.0 0 1 241.74 184.14
  Q 239.72 180.22 241.93 176.62
  Z"
/>
<path fill="#3b2959" d="
  M 170.35 173.50
  Q 170.31 173.28 170.65 173.40
  A 0.13 0.13 0.0 0 1 170.67 173.63
  Q 170.40 173.80 170.35 173.50
  Z"
/>
<path fill="#3b2959" d="
  M 175.87 174.41
  Q 176.78 173.90 176.27 174.81
  Q 176.15 175.03 175.71 175.22
  Q 175.34 175.38 175.38 174.98
  Q 175.41 174.67 175.87 174.41
  Z"
/>
<path fill="#fcfcfc" d="
  M 295.41 176.53
  L 278.06 228.14
  A 0.30 0.30 0.0 0 0 278.45 228.51
  L 295.51 221.72
  L 273.26 244.34
  Q 272.89 244.71 272.90 245.24
  Q 273.10 256.08 270.50 268.27
  A 0.08 0.08 0.0 0 1 270.35 268.26
  L 268.67 250.94
  A 0.83 0.83 0.0 0 0 267.25 250.44
  L 240.43 278.04
  A 1.83 1.82 67.0 0 0 239.91 279.34
  Q 240.10 290.56 239.73 298.35
  Q 239.66 299.90 239.45 298.36
  Q 238.57 291.85 236.10 282.84
  A 0.37 0.36 -29.9 0 0 235.49 282.68
  C 229.69 288.41 225.26 291.99 221.38 297.88
  Q 209.57 315.84 203.06 336.31
  Q 202.90 336.81 203.16 337.42
  Q 203.15 337.00 202.90 337.67
  Q 202.29 340.94 200.15 343.27
  Q 198.03 349.85 196.84 356.65
  Q 196.27 359.98 194.97 363.57
  Q 193.73 367.00 192.92 370.50
  Q 192.26 371.71 192.49 372.50
  Q 191.91 372.09 191.45 372.89
  Q 189.62 374.05 188.53 372.55
  L 188.48 371.30
  Q 188.79 371.01 188.76 370.47
  Q 192.90 358.33 195.19 349.23
  Q 195.71 347.17 195.57 344.05
  Q 196.00 343.65 195.69 342.94
  L 197.06 340.81
  Q 197.41 340.42 197.20 339.91
  Q 199.03 336.71 198.47 332.99
  Q 198.40 332.50 198.69 332.09
  Q 199.53 330.95 199.66 330.43
  Q 208.14 298.06 208.31 297.44
  Q 210.32 290.13 215.37 268.91
  Q 216.81 262.87 219.51 249.35
  Q 221.57 239.06 224.05 228.85
  Q 224.74 224.07 226.66 222.43
  Q 234.92 215.33 237.60 211.36
  Q 243.50 202.63 247.19 198.43
  Q 248.24 197.24 249.03 196.60
  Q 250.13 195.71 249.36 196.90
  L 241.49 208.99
  Q 239.66 212.97 237.77 216.93
  Q 235.66 221.36 234.39 225.01
  Q 232.45 230.59 229.90 239.68
  Q 229.36 241.59 230.74 240.17
  L 288.80 180.23
  L 295.37 174.67
  Q 295.79 174.32 295.70 174.85
  L 295.41 176.53
  Z"
/>
<rect fill="#3b2959" x="-0.24" y="-13.19" transform="translate(176.08,184.44) rotate(-42.7)" width="0.48" height="26.38" rx="0.24"/>
<path fill="#6824a0" d="
  M 202.21 178.48
  L 202.32 179.54
  Q 201.23 179.80 200.46 179.46
  Q 199.88 179.21 200.32 178.75
  L 201.11 177.94
  Q 201.55 177.49 201.90 178.01
  L 202.21 178.48
  Z"
/>
<path fill="#3b2959" d="
  M 151.46 201.15
  Q 151.36 201.20 151.27 201.24
  Q 139.68 190.39 129.24 178.38
  Q 128.88 177.97 129.32 178.24
  Q 129.44 178.31 129.56 178.44
  Q 140.46 189.85 151.46 201.15
  Z"
/>
<path fill="#3b2959" d="
  M 391.03 182.10
  Q 390.93 182.05 390.82 182.00
  Q 392.67 180.02 394.56 178.06
  Q 394.63 177.99 394.74 178.02
  Q 394.92 178.08 394.77 178.23
  L 391.03 182.10
  Z"
/>
<rect fill="#3b2959" x="-13.05" y="-0.22" transform="translate(372.23,187.48) rotate(-44.5)" width="26.10" height="0.44" rx="0.21"/>
<path fill="#3b2959" d="
  M 202.32 179.54
  L 202.21 178.48
  Q 202.86 179.06 202.32 179.54
  Z"
/>
<ellipse fill="#3b2959" cx="0.00" cy="0.00" transform="translate(337.59,179.39) rotate(-39.0)" rx="0.38" ry="0.07"/>
<path fill="#8123cd" d="
  M 151.27 201.24
  Q 151.36 201.20 151.46 201.15
  Q 155.11 204.27 157.05 208.07
  A 1.58 1.58 0.0 0 0 159.60 208.45
  L 168.20 199.61
  Q 168.53 199.27 168.85 199.63
  Q 173.71 205.26 177.55 210.06
  C 180.21 213.39 183.69 217.05 186.45 219.23
  Q 187.00 219.67 187.89 219.56
  L 201.16 233.98
  Q 191.06 237.47 180.78 234.44
  Q 178.84 233.87 176.51 233.24
  Q 171.51 228.58 178.39 236.84
  Q 179.79 238.50 183.35 241.05
  Q 179.56 241.35 176.20 240.70
  Q 173.66 240.21 168.69 242.83
  Q 162.00 235.85 155.27 228.98
  Q 150.06 223.65 143.96 219.99
  A 2.89 2.89 0.0 0 1 142.76 218.61
  Q 136.99 204.83 135.82 201.36
  Q 134.91 198.65 133.15 196.80
  Q 131.17 194.72 118.52 180.48
  Q 116.83 178.58 118.63 180.37
  Q 124.57 186.32 131.35 193.44
  Q 133.26 195.45 136.45 197.62
  Q 140.06 200.07 143.22 198.66
  Q 143.71 198.44 144.18 198.71
  Q 146.36 199.96 146.99 200.77
  Q 157.95 214.89 170.83 227.26
  Q 171.00 227.43 171.16 227.26
  L 171.17 227.25
  Q 171.33 227.09 171.19 226.92
  Q 164.51 219.15 158.11 211.13
  C 157.21 210.00 157.41 209.12 156.69 208.10
  Q 154.16 204.55 151.27 201.24
  Z"
/>
<path fill="#8123cd" d="
  M 390.82 182.00
  Q 390.93 182.05 391.03 182.10
  Q 388.06 185.07 386.90 186.65
  Q 383.19 191.69 379.00 195.97
  Q 375.82 199.22 374.18 202.06
  Q 367.63 213.42 365.04 219.29
  Q 363.12 223.63 362.61 224.58
  Q 361.82 226.04 359.66 227.19
  Q 352.85 230.81 347.15 235.13
  C 343.61 237.81 339.54 237.62 336.31 241.30
  Q 330.98 247.36 325.88 253.49
  C 319.43 254.85 314.84 258.02 309.85 260.96
  Q 306.77 262.79 305.09 264.45
  Q 303.98 265.55 301.29 269.04
  Q 298.43 272.74 286.84 284.46
  Q 286.68 284.62 286.56 284.46
  L 286.56 284.45
  Q 286.44 284.29 286.55 284.17
  Q 297.53 272.76 301.27 268.24
  Q 307.66 260.51 310.33 257.95
  Q 310.49 257.80 310.60 257.52
  C 310.76 257.10 310.86 256.70 311.20 256.33
  Q 315.72 251.40 320.34 246.56
  Q 324.49 242.06 325.88 240.89
  Q 333.46 234.48 339.52 227.17
  Q 339.90 226.70 339.30 226.72
  Q 333.81 226.91 329.25 230.50
  C 325.53 233.43 320.56 237.46 316.09 240.29
  Q 301.16 249.74 287.30 260.53
  Q 283.59 263.43 278.72 265.09
  Q 278.19 265.27 278.55 264.84
  Q 293.36 246.77 295.41 244.16
  Q 297.12 241.98 299.32 241.10
  Q 302.15 239.98 303.72 239.34
  Q 304.17 239.15 304.30 238.68
  Q 305.74 233.55 307.33 231.81
  Q 311.85 226.89 316.16 222.36
  Q 320.13 219.58 323.19 216.23
  Q 327.19 211.86 327.30 211.75
  Q 332.99 205.95 337.68 200.33
  Q 338.01 199.94 338.39 200.29
  Q 341.65 203.35 344.52 207.59
  Q 345.34 208.82 346.67 209.74
  Q 347.11 210.05 347.35 209.56
  L 347.49 209.28
  Q 347.59 209.08 347.77 209.21
  Q 349.39 210.32 350.86 208.74
  Q 350.99 208.90 351.12 209.06
  Q 350.52 209.54 350.06 210.15
  Q 349.86 210.42 349.50 211.51
  Q 349.07 212.83 347.23 212.78
  Q 346.75 212.77 346.79 212.29
  L 346.85 211.50
  A 0.70 0.48 -31.1 0 0 345.72 211.44
  C 343.78 213.69 342.15 216.19 339.70 218.49
  Q 335.62 222.32 331.31 227.43
  Q 331.14 227.62 331.32 227.73
  L 331.33 227.73
  Q 331.51 227.84 331.63 227.73
  C 333.94 225.60 335.99 223.59 338.22 221.12
  C 340.82 218.24 344.73 216.51 348.26 215.04
  Q 349.48 214.54 354.73 209.47
  Q 358.11 206.21 361.35 202.72
  Q 361.70 202.35 362.20 202.37
  C 363.38 202.41 365.34 202.56 366.92 202.03
  Q 374.11 199.65 376.92 196.91
  Q 383.32 190.70 384.59 189.09
  Q 388.69 183.94 390.82 182.00
  Z"
/>
<ellipse fill="#3b2959" cx="0.00" cy="0.00" transform="translate(329.99,188.48) rotate(130.2)" rx="5.78" ry="0.18"/>
<path fill="#3b2959" d="
  M 127.76 184.27
  Q 127.93 184.10 128.29 184.23
  A 0.28 0.28 0.0 0 1 128.36 184.72
  Q 128.05 184.96 127.76 184.65
  Q 127.57 184.46 127.76 184.27
  Z"
/>
<path fill="#47256d" d="
  M 316.71 188.45
  Q 315.81 189.41 314.60 192.75
  Q 314.50 193.01 314.30 192.89
  L 314.09 192.76
  Q 314.05 192.74 314.07 192.70
  L 316.56 186.47
  A 0.70 0.69 23.5 0 1 317.51 186.10
  L 318.05 186.38
  A 0.31 0.31 0.0 0 1 318.15 186.86
  Q 317.55 187.55 316.71 188.45
  Z"
/>
<path fill="#3b2959" d="
  M 174.43 188.72
  Q 174.45 188.66 174.52 188.64
  Q 174.67 188.59 174.64 188.73
  Q 174.62 188.80 174.53 188.83
  A 0.09 0.08 3.7 0 1 174.43 188.72
  Z"
/>
<ellipse fill="#3b2959" cx="0.00" cy="0.00" transform="translate(325.10,194.13) rotate(125.9)" rx="1.01" ry="0.14"/>
<path fill="#47256d" d="
  M 339.34 194.30
  Q 339.80 194.36 340.14 194.67
  Q 340.55 195.05 340.29 195.54
  Q 340.11 195.90 339.57 196.33
  A 0.66 0.66 0.0 0 1 338.54 196.04
  Q 338.28 195.28 338.61 194.74
  Q 338.92 194.25 339.34 194.30
  Z"
/>
<path fill="#3b2959" d="
  M 186.95 194.90
  A 0.39 0.38 45.6 0 1 187.66 194.91
  Q 187.87 195.40 187.41 195.71
  A 0.36 0.35 61.4 0 1 186.88 195.55
  Q 186.78 195.30 186.95 194.90
  Z"
/>
<path fill="#3b2959" d="
  M 362.27 197.38
  Q 362.44 197.28 362.56 197.35
  A 0.15 0.15 0.0 0 1 362.52 197.62
  Q 362.09 197.72 362.09 197.58
  Q 362.10 197.46 362.27 197.38
  Z"
/>
<path fill="#3b2959" d="
  M 361.12 198.44
  Q 360.30 199.00 360.96 198.26
  Q 361.05 198.17 361.21 198.11
  Q 361.69 197.95 361.35 198.27
  Q 361.27 198.35 361.12 198.44
  Z"
/>
<path fill="#3b2959" d="
  M 351.12 209.06
  Q 350.99 208.90 350.86 208.74
  Q 354.58 204.79 358.36 200.84
  Q 358.47 200.72 358.54 199.98
  A 0.32 0.31 -68.3 0 1 359.04 199.76
  Q 359.20 199.88 359.37 199.93
  Q 359.69 200.03 359.46 200.27
  L 351.12 209.06
  Z"
/>
<path fill="#47256d" d="
  M 328.49 200.27
  Q 328.86 200.14 329.24 200.25
  Q 329.76 200.40 329.76 200.93
  Q 329.77 202.32 329.21 202.50
  Q 328.64 202.68 327.84 201.55
  Q 327.53 201.12 327.87 200.69
  Q 328.11 200.38 328.49 200.27
  Z"
/>
<path fill="#3b2959" d="
  M 188.38 206.58
  A 0.40 0.39 -85.4 0 1 188.87 206.16
  Q 189.51 206.32 189.59 206.92
  Q 189.67 207.48 189.04 207.98
  Q 188.55 208.35 188.49 207.74
  L 188.38 206.58
  Z"
/>
<path fill="#47256d" d="
  M 224.05 228.85
  Q 221.57 239.06 219.51 249.35
  Q 216.81 262.87 215.37 268.91
  Q 210.32 290.13 208.31 297.44
  Q 208.14 298.06 199.66 330.43
  Q 199.53 330.95 198.69 332.09
  Q 198.40 332.50 198.47 332.99
  Q 199.03 336.71 197.20 339.91
  Q 197.27 340.03 196.88 340.34
  Q 188.97 331.13 181.40 321.65
  Q 178.85 318.46 176.66 314.46
  Q 174.36 310.24 172.49 307.07
  Q 172.07 306.37 172.79 306.76
  Q 174.69 307.82 178.22 311.79
  Q 182.77 316.89 186.79 320.88
  C 190.86 324.93 193.85 328.66 197.77 332.73
  Q 197.97 332.93 198.04 332.66
  Q 198.61 330.50 197.19 328.55
  Q 194.58 324.93 191.44 322.06
  Q 190.18 320.92 182.93 312.72
  Q 178.92 308.19 175.27 302.71
  Q 168.22 292.13 162.89 283.88
  Q 162.48 283.25 160.90 281.67
  Q 160.80 281.57 160.89 281.45
  L 160.90 281.44
  Q 160.98 281.34 161.23 281.52
  Q 170.54 288.22 174.63 291.81
  Q 184.88 300.83 192.51 306.84
  Q 194.72 308.59 195.52 309.36
  Q 196.85 310.66 198.93 312.75
  A 0.40 0.40 0.0 0 0 199.61 312.49
  Q 200.30 300.59 200.33 299.02
  C 200.36 297.55 200.24 296.24 199.26 295.06
  Q 194.80 289.72 189.25 284.44
  Q 181.98 277.52 178.92 274.08
  Q 172.89 267.30 166.70 260.61
  Q 166.36 260.24 166.86 260.27
  Q 174.11 260.70 176.03 261.23
  Q 180.78 262.53 184.81 263.01
  Q 185.55 263.10 185.08 262.52
  L 175.76 250.91
  Q 193.57 250.65 209.08 242.23
  Q 209.55 241.98 209.16 241.61
  L 201.16 233.98
  L 187.89 219.56
  L 190.20 218.00
  Q 190.62 217.72 191.02 218.03
  Q 191.40 218.31 191.87 218.15
  A 0.73 0.73 0.0 0 0 192.37 217.44
  Q 192.35 214.52 193.82 212.55
  Q 194.22 213.55 195.09 212.23
  L 195.54 212.16
  Q 196.11 212.07 196.14 211.50
  L 196.40 206.67
  Q 200.98 208.85 206.66 209.25
  Q 207.18 209.29 209.70 210.73
  Q 210.14 210.99 210.12 211.50
  Q 210.06 213.20 209.94 213.74
  Q 208.23 221.77 205.93 232.75
  Q 205.83 233.24 206.29 233.04
  Q 210.43 231.24 214.90 232.78
  Q 216.18 233.23 218.99 231.80
  Q 221.59 230.48 224.05 228.85
  Z"
/>
<path fill="#3b2959" d="
  M 195.09 212.23
  Q 194.22 213.55 193.82 212.55
  Q 194.41 212.11 195.09 212.23
  Z"
/>
<path fill="#47256d" d="
  M 295.51 221.72
  C 294.50 224.78 294.50 226.97 297.91 227.93
  C 301.74 229.01 302.83 234.60 303.14 237.71
  A 0.62 0.62 0.0 0 1 302.52 238.39
  C 295.42 238.34 293.28 241.01 290.89 247.27
  Q 290.08 249.39 288.26 251.58
  C 283.49 257.33 278.69 262.58 274.87 268.06
  Q 268.74 276.83 263.79 281.80
  Q 259.94 285.67 256.29 290.71
  Q 256.21 290.82 249.28 300.18
  Q 248.96 300.60 249.44 300.84
  Q 249.74 300.99 250.02 300.76
  Q 256.96 294.85 268.16 285.64
  Q 270.82 283.45 273.68 281.83
  C 276.17 280.43 279.03 279.09 281.40 277.32
  Q 293.84 268.02 300.30 261.81
  Q 303.82 258.43 314.78 246.26
  C 317.46 243.29 319.92 241.23 323.25 240.06
  Q 325.80 239.16 324.20 241.34
  L 320.34 246.56
  Q 315.72 251.40 311.20 256.33
  C 310.86 256.70 310.76 257.10 310.60 257.52
  Q 310.49 257.80 310.33 257.95
  Q 307.66 260.51 301.27 268.24
  Q 297.53 272.76 286.55 284.17
  Q 286.44 284.29 286.56 284.45
  L 286.56 284.46
  Q 286.68 284.62 286.84 284.46
  Q 298.43 272.74 301.29 269.04
  Q 303.98 265.55 305.09 264.45
  Q 306.77 262.79 309.85 260.96
  C 314.84 258.02 319.43 254.85 325.88 253.49
  L 319.44 261.92
  Q 318.46 263.21 320.01 262.72
  Q 326.18 260.78 333.08 260.31
  Q 333.79 260.26 333.29 260.77
  L 298.10 296.98
  A 1.52 1.51 67.4 0 0 297.67 298.04
  L 297.67 311.27
  A 0.37 0.37 0.0 0 0 298.27 311.56
  C 301.58 309.04 304.49 305.76 307.93 303.19
  Q 315.79 297.32 322.33 291.68
  C 326.21 288.33 330.88 285.28 335.22 282.39
  Q 335.66 282.10 335.36 282.53
  Q 328.18 293.07 325.46 296.97
  Q 321.27 303.02 316.43 308.03
  Q 307.10 317.73 294.13 332.16
  Q 293.77 332.55 293.44 332.14
  L 286.77 323.65
  Q 284.99 317.31 285.12 309.84
  A 0.60 0.59 -20.6 0 0 284.12 309.39
  C 280.27 312.89 276.63 315.52 271.78 318.20
  C 264.90 322.02 259.32 324.83 254.05 329.42
  Q 252.40 330.85 247.83 335.58
  C 244.82 338.69 242.16 340.25 237.75 343.23
  Q 234.36 345.53 232.85 347.42
  C 228.99 352.26 227.52 357.51 226.37 363.73
  L 223.84 368.88
  Q 223.63 368.81 223.31 369.24
  Q 222.52 368.99 222.23 370.01
  A 1.72 1.70 -12.6 0 1 221.71 370.82
  Q 219.70 372.53 218.84 374.20
  Q 218.05 375.75 215.74 377.45
  Q 212.48 379.86 208.95 384.01
  Q 207.46 385.75 207.36 383.52
  L 207.24 380.78
  Q 207.11 378.09 206.05 380.56
  Q 203.04 387.53 200.81 394.16
  Q 200.62 394.72 200.02 394.72
  L 199.72 394.72
  A 0.21 0.21 0.0 0 1 199.51 394.51
  L 199.51 388.96
  A 0.59 0.58 -24.7 0 0 198.48 388.58
  Q 198.23 388.88 198.16 388.92
  Q 196.89 389.59 197.49 388.31
  Q 199.60 383.77 200.37 381.86
  Q 201.55 378.94 200.77 377.47
  Q 200.53 377.01 200.81 376.56
  Q 205.51 369.22 210.82 363.69
  C 212.14 362.31 213.63 360.18 213.51 358.50
  C 213.31 355.71 214.56 354.89 215.80 352.59
  Q 216.17 351.90 215.41 352.08
  Q 214.69 352.25 213.49 353.73
  Q 206.34 362.48 202.49 370.23
  C 201.49 372.25 198.96 375.04 197.71 377.71
  Q 196.33 380.64 193.49 384.64
  Q 193.43 384.72 193.35 384.69
  Q 193.33 384.68 193.30 384.68
  Q 193.24 384.66 193.28 384.60
  Q 195.80 380.74 196.81 378.64
  Q 198.62 374.90 200.11 372.62
  Q 203.54 367.36 205.31 363.19
  Q 205.53 362.69 204.98 362.75
  Q 203.85 362.89 203.06 364.04
  Q 202.95 364.20 202.92 364.17
  L 202.70 363.97
  Q 202.42 363.70 202.63 363.37
  Q 204.92 359.96 205.65 358.90
  Q 207.13 356.72 208.35 354.20
  Q 214.74 340.96 218.18 333.30
  A 1.96 1.94 -50.2 0 0 218.02 331.42
  Q 216.61 329.34 214.48 327.44
  Q 214.07 327.07 213.67 327.45
  L 203.16 337.42
  Q 202.90 336.81 203.06 336.31
  Q 209.57 315.84 221.38 297.88
  C 225.26 291.99 229.69 288.41 235.49 282.68
  A 0.37 0.36 -29.9 0 1 236.10 282.84
  Q 238.57 291.85 239.45 298.36
  Q 239.66 299.90 239.73 298.35
  Q 240.10 290.56 239.91 279.34
  A 1.83 1.82 67.0 0 1 240.43 278.04
  L 267.25 250.44
  A 0.83 0.83 0.0 0 1 268.67 250.94
  L 270.35 268.26
  A 0.08 0.08 0.0 0 0 270.50 268.27
  Q 273.10 256.08 272.90 245.24
  Q 272.89 244.71 273.26 244.34
  L 295.51 221.72
  Z
  M 210.08 352.18
  C 209.75 352.90 209.23 353.10 208.93 353.74
  Q 208.84 353.92 209.02 354.01
  L 209.31 354.15
  A 0.25 0.25 0.0 0 0 209.64 354.05
  Q 214.93 345.16 216.52 342.53
  Q 218.50 339.26 219.21 334.39
  Q 219.23 334.26 219.11 334.20
  L 218.57 333.93
  Q 218.30 333.80 218.21 334.09
  Q 217.02 338.08 216.19 339.69
  Q 212.80 346.24 210.08 352.18
  Z"
/>
<ellipse fill="#3b2959" cx="0.00" cy="0.00" transform="translate(366.38,235.27) rotate(134.2)" rx="15.93" ry="0.30"/>
<path fill="#3b2959" d="
  M 130.23 226.04
  Q 129.99 225.98 129.81 225.82
  Q 129.69 225.72 129.76 225.63
  Q 129.78 225.60 129.81 225.59
  Q 129.88 225.57 129.95 225.63
  Q 130.14 225.82 130.23 226.04
  Z"
/>
<path fill="#3b2959" d="
  M 130.23 226.04
  Q 132.88 228.23 133.74 229.26
  Q 138.60 235.16 142.94 238.91
  Q 148.58 243.80 153.19 249.65
  A 0.03 0.02 5.9 0 1 153.15 249.68
  Q 149.95 246.39 146.71 243.12
  Q 146.15 242.56 141.14 238.06
  Q 138.33 235.53 135.98 232.56
  Q 134.78 231.05 133.08 229.35
  Q 131.53 227.80 130.23 226.04
  Z"
/>
<ellipse fill="#3b2959" cx="0.00" cy="0.00" transform="translate(144.13,227.25) rotate(-17.4)" rx="0.57" ry="0.41"/>
<path fill="#952ade" d="
  M 176.51 233.24
  L 183.35 241.05
  Q 179.79 238.50 178.39 236.84
  Q 171.51 228.58 176.51 233.24
  Z"
/>
<path fill="#6824a0" d="
  M 201.16 233.98
  L 209.16 241.61
  Q 209.55 241.98 209.08 242.23
  Q 193.57 250.65 175.76 250.91
  L 168.69 242.83
  Q 173.66 240.21 176.20 240.70
  Q 179.56 241.35 183.35 241.05
  L 176.51 233.24
  Q 178.84 233.87 180.78 234.44
  Q 191.06 237.47 201.16 233.98
  Z"
/>
<path fill="#3b2959" d="
  M 362.26 231.83
  Q 362.50 231.49 362.74 231.84
  Q 362.93 232.13 362.86 232.33
  Q 362.72 232.67 362.40 232.50
  Q 361.96 232.26 362.26 231.83
  Z"
/>
<path fill="#3b2959" d="
  M 147.81 238.61
  Q 147.86 239.21 147.53 239.53
  Q 147.16 239.91 146.66 239.70
  Q 145.32 239.14 145.29 238.82
  Q 145.27 238.50 146.49 237.72
  Q 146.95 237.43 147.38 237.75
  Q 147.76 238.01 147.81 238.61
  Z"
/>
<circle fill="#3b2959" cx="353.95" cy="266.07" r="0.72"/>
<circle fill="#3b2959" cx="363.10" cy="265.79" r="0.63"/>
<path fill="#3b2959" d="
  M 156.45 265.55
  Q 157.31 266.09 157.28 266.58
  A 0.72 0.72 0.0 0 1 156.27 267.19
  Q 156.00 267.07 155.78 266.74
  Q 155.51 266.33 155.65 266.12
  Q 155.85 265.81 156.18 265.56
  A 0.26 0.25 42.3 0 1 156.45 265.55
  Z"
/>
<path fill="#3b2959" d="
  M 140.51 265.93
  Q 140.63 265.44 141.20 265.95
  A 0.39 0.39 0.0 0 1 141.14 266.58
  Q 140.97 266.69 140.72 266.51
  A 0.55 0.55 0.0 0 1 140.51 265.93
  Z"
/>
<path fill="#3b2959" d="
  M 168.67 270.44
  Q 168.97 270.56 169.18 270.77
  Q 169.56 271.15 169.29 271.61
  Q 168.45 273.06 167.74 272.78
  Q 167.04 272.50 167.42 270.87
  Q 167.54 270.35 168.08 270.33
  Q 168.37 270.32 168.67 270.44
  Z"
/>
<ellipse fill="#3b2959" cx="0.00" cy="0.00" transform="translate(139.13,293.12) rotate(45.5)" rx="1.08" ry="0.04"/>
<path fill="#3b2959" d="
  M 360.52 294.27
  Q 360.39 294.45 360.23 294.57
  Q 359.43 295.12 360.03 294.37
  Q 360.22 294.13 360.52 294.27
  Z"
/>
<path fill="#3b2959" d="
  M 143.40 297.22
  Q 144.49 298.28 146.46 300.21
  Q 147.52 301.25 150.57 303.71
  Q 152.62 305.37 155.12 308.38
  Q 158.42 312.37 161.90 315.77
  Q 161.96 315.83 161.89 315.93
  L 161.88 315.93
  Q 161.80 316.05 161.68 315.94
  Q 158.79 313.36 158.10 312.53
  Q 151.90 305.07 150.42 303.95
  Q 146.53 301.00 143.26 297.35
  A 0.10 0.09 1.6 0 1 143.40 297.22
  Z"
/>
<ellipse fill="#3b2959" cx="0.00" cy="0.00" transform="translate(358.28,296.36) rotate(-43.6)" rx="0.79" ry="0.11"/>
<path fill="#3b2959" d="
  M 148.37 296.38
  Q 148.67 296.56 148.87 296.88
  L 148.88 296.88
  Q 148.58 296.67 148.37 296.38
  Z"
/>
<rect fill="#3b2959" x="-13.06" y="-0.19" transform="translate(348.00,306.26) rotate(-44.5)" width="26.12" height="0.38" rx="0.19"/>
<path fill="#3b2959" d="
  M 347.81 300.42
  Q 347.99 300.24 348.19 300.09
  Q 349.15 299.38 348.34 300.23
  Q 348.16 300.43 347.95 300.59
  Q 346.57 301.71 347.81 300.42
  Z"
/>
<path fill="#3b2959" d="
  M 153.91 301.78
  Q 153.19 301.27 152.80 300.70
  A 0.07 0.07 0.0 0 1 152.90 300.61
  L 153.97 301.70
  Q 154.36 302.10 153.91 301.78
  Z"
/>
<ellipse fill="#3b2959" cx="0.00" cy="0.00" transform="translate(344.47,303.50) rotate(-42.7)" rx="0.55" ry="0.11"/>
<path fill="#47256d" d="
  M 289.34 346.87
  Q 289.27 346.98 289.20 347.08
  Q 289.12 347.23 289.09 347.06
  Q 289.05 346.79 289.21 346.52
  Q 289.42 346.15 289.45 346.09
  Q 293.90 336.82 295.76 334.77
  Q 298.37 331.89 300.78 328.95
  Q 303.71 325.39 305.85 323.17
  Q 315.76 312.88 324.81 304.12
  Q 324.93 304.00 324.85 304.15
  Q 317.94 316.63 308.36 326.60
  Q 304.99 330.11 301.74 333.96
  Q 296.99 339.58 295.03 341.28
  Q 290.55 345.16 289.34 346.87
  Z"
/>
<path fill="#3b2959" d="
  M 343.60 304.61
  Q 343.59 304.72 343.42 304.89
  Q 342.72 305.62 343.14 304.78
  Q 343.19 304.68 343.31 304.58
  Q 343.63 304.32 343.60 304.61
  Z"
/>
<path fill="#3b2959" d="
  M 158.55 306.34
  L 157.99 305.79
  Q 157.71 305.52 158.06 305.68
  Q 158.53 305.89 158.66 306.26
  Q 158.76 306.55 158.55 306.34
  Z"
/>
<path fill="#3b2959" d="
  M 341.65 306.50
  A 6.11 0.04 -42.8 0 1 341.95 306.24
  A 6.11 0.04 -43.0 0 0 341.65 306.50
  Z"
/>
<path fill="#3b2959" d="
  M 341.65 306.50
  A 6.12 0.07 -44.4 0 0 333.21 314.80
  A 6.12 0.07 -44.4 0 1 341.65 306.50
  Z"
/>
<ellipse fill="#3b2959" cx="0.00" cy="0.00" transform="translate(160.35,307.97) rotate(44.3)" rx="1.47" ry="0.12"/>
<path fill="#3b2959" d="
  M 286.77 323.65
  Q 283.54 327.14 280.43 330.63
  Q 277.56 333.85 275.62 337.28
  Q 273.29 341.37 271.85 344.61
  Q 263.37 363.55 262.52 365.51
  Q 262.20 366.25 262.23 366.72
  A 0.45 0.45 0.0 0 0 262.91 367.07
  Q 265.48 365.53 266.99 362.79
  Q 269.92 357.46 271.46 353.23
  Q 271.65 352.71 271.11 352.62
  Q 270.95 352.60 270.65 352.59
  Q 269.75 352.56 270.51 352.08
  Q 273.16 350.41 275.06 346.45
  Q 275.21 346.14 275.36 346.07
  Q 275.55 346.00 275.68 345.88
  Q 275.84 345.74 275.84 345.95
  L 275.84 347.68
  Q 275.84 348.20 276.35 348.12
  Q 276.86 348.04 277.23 347.46
  Q 278.65 345.23 279.74 343.82
  Q 280.05 343.43 280.51 343.22
  Q 281.25 342.88 281.31 341.97
  Q 281.32 341.85 281.44 341.95
  Q 281.46 341.96 281.48 341.98
  Q 281.51 342.02 281.49 342.06
  Q 278.14 347.75 273.20 352.14
  Q 272.70 352.58 272.63 353.00
  Q 272.57 353.39 272.69 353.73
  Q 272.86 354.19 272.56 354.57
  Q 271.90 355.44 268.72 361.46
  Q 267.07 364.56 267.61 366.64
  Q 267.74 367.14 267.33 367.45
  Q 264.70 369.45 260.87 374.05
  C 259.49 375.71 256.79 376.72 256.22 378.74
  Q 255.80 380.23 254.07 385.57
  Q 252.82 389.44 250.14 391.96
  Q 248.17 393.81 247.41 395.46
  Q 245.97 398.58 243.90 403.11
  Q 243.33 404.35 242.57 407.01
  Q 242.00 409.01 241.30 410.96
  Q 240.56 413.03 239.03 414.68
  Q 237.85 415.95 236.24 418.25
  A 1.21 1.21 0.0 0 1 234.13 418.01
  Q 233.38 416.16 234.04 414.56
  Q 234.24 414.07 233.84 413.73
  Q 233.77 413.68 233.62 413.58
  Q 233.43 413.44 233.59 413.26
  Q 235.78 410.74 236.47 406.78
  Q 236.56 406.27 236.92 405.88
  Q 237.38 405.39 238.15 405.28
  A 1.77 1.74 -68.6 0 0 239.04 404.88
  Q 241.32 402.99 240.19 400.29
  A 0.37 0.37 0.0 0 1 240.64 399.80
  L 241.06 399.93
  Q 241.64 400.11 242.00 399.62
  Q 243.80 397.16 244.15 395.13
  Q 244.27 394.45 243.69 394.60
  L 243.23 394.72
  A 0.30 0.28 -64.5 0 1 243.06 394.17
  Q 244.33 393.48 244.35 391.99
  Q 244.36 391.38 244.92 391.58
  L 245.23 391.69
  Q 245.70 391.86 245.83 391.42
  Q 246.85 387.80 247.64 386.36
  Q 248.07 385.59 247.33 385.83
  L 247.04 385.92
  Q 246.46 386.10 246.73 385.56
  L 247.52 383.96
  Q 247.76 383.48 248.30 383.42
  L 250.07 383.25
  Q 250.67 383.20 250.98 382.69
  Q 252.99 379.51 253.68 375.60
  A 0.61 0.61 0.0 0 0 252.73 374.99
  L 246.57 379.28
  A 0.69 0.68 -9.0 0 0 246.29 379.66
  L 243.30 389.06
  Q 243.14 389.56 242.74 389.90
  Q 239.70 392.51 236.64 394.60
  Q 234.99 395.73 234.32 397.31
  Q 233.67 398.84 232.65 400.59
  C 230.64 404.03 232.34 407.67 231.13 411.58
  Q 229.57 416.62 227.76 420.54
  A 2.65 2.63 -83.3 0 1 225.91 422.01
  C 224.04 422.41 222.37 422.23 221.13 424.22
  Q 218.80 427.96 218.75 431.52
  Q 218.75 432.02 218.47 432.45
  Q 215.49 437.00 214.37 443.32
  Q 214.18 444.38 212.64 446.63
  C 211.69 448.01 211.38 449.77 210.40 451.07
  A 1.05 1.04 58.5 0 1 208.54 450.62
  Q 208.34 449.47 209.00 447.86
  Q 209.23 447.32 210.83 445.91
  Q 213.20 443.83 213.68 439.55
  Q 214.00 436.71 215.86 433.37
  Q 217.37 430.66 217.90 428.36
  Q 218.94 423.88 219.05 422.99
  Q 219.68 417.69 221.92 412.07
  Q 222.11 411.60 222.59 411.44
  C 226.00 410.33 228.38 405.22 229.21 402.27
  Q 231.78 393.12 234.70 385.23
  Q 237.01 379.00 238.25 373.46
  A 0.12 0.12 0.0 0 0 238.13 373.32
  L 237.71 373.32
  A 0.43 0.42 9.7 0 0 237.31 373.60
  Q 233.34 385.02 228.11 395.95
  A 0.27 0.26 35.3 0 1 227.69 396.02
  L 227.47 395.80
  Q 227.32 395.66 227.41 395.48
  Q 233.51 381.65 235.04 377.78
  Q 235.39 376.88 235.71 374.98
  Q 235.91 373.74 235.50 372.17
  Q 235.01 370.31 235.46 369.00
  Q 236.87 364.91 237.57 361.59
  Q 237.66 361.16 237.31 360.89
  Q 236.92 360.59 236.63 360.57
  Q 236.18 360.55 236.21 360.10
  Q 236.23 359.82 236.42 359.68
  Q 236.72 359.48 236.98 359.73
  L 237.29 360.03
  Q 237.59 360.33 237.84 359.99
  Q 239.22 358.14 239.38 355.85
  A 0.32 0.32 0.0 0 0 238.96 355.52
  Q 236.65 356.21 234.63 358.38
  Q 234.34 358.69 228.98 365.74
  Q 228.16 366.82 227.55 368.80
  Q 224.82 377.70 222.89 383.02
  Q 222.44 384.25 221.09 386.16
  Q 219.76 388.04 219.34 389.57
  Q 219.27 389.85 218.98 389.83
  Q 218.86 389.82 218.73 389.73
  Q 218.64 389.66 218.66 389.55
  Q 220.05 383.09 222.70 377.04
  C 223.21 375.88 223.43 374.01 223.60 372.86
  Q 223.67 372.40 223.20 372.44
  L 221.99 372.56
  Q 221.46 372.61 221.62 372.10
  Q 222.13 370.51 223.31 369.24
  Q 223.63 368.81 223.84 368.88
  Q 226.07 366.78 226.37 363.73
  C 227.52 357.51 228.99 352.26 232.85 347.42
  Q 234.36 345.53 237.75 343.23
  C 242.16 340.25 244.82 338.69 247.83 335.58
  Q 252.40 330.85 254.05 329.42
  C 259.32 324.83 264.90 322.02 271.78 318.20
  C 276.63 315.52 280.27 312.89 284.12 309.39
  A 0.60 0.59 -20.6 0 1 285.12 309.84
  Q 284.99 317.31 286.77 323.65
  Z
  M 240.20 363.05
  L 239.78 363.48
  A 0.46 0.46 0.0 0 0 239.93 364.23
  Q 240.43 364.44 240.64 364.17
  Q 241.06 363.61 240.80 363.13
  A 0.38 0.37 52.3 0 0 240.20 363.05
  Z"
/>
<ellipse fill="#3b2959" cx="0.00" cy="0.00" transform="translate(162.58,316.68) rotate(44.1)" rx="0.43" ry="0.13"/>
<path fill="#3b2959" d="
  M 165.37 319.64
  Q 165.31 319.69 163.28 317.46
  Q 163.24 317.41 163.27 317.37
  Q 163.31 317.34 163.36 317.39
  Q 165.43 319.58 165.37 319.64
  Z"
/>
<path fill="#3b2959" d="
  M 149.35 324.54
  Q 149.34 324.28 149.58 324.38
  Q 149.64 324.41 149.66 324.53
  Q 149.70 324.72 149.53 324.76
  Q 149.35 324.81 149.35 324.54
  Z"
/>
<path fill="#3b2959" d="
  M 288.28 328.93
  A 0.19 0.17 38.5 0 1 288.64 328.91
  Q 288.67 328.98 288.50 329.25
  Q 288.33 329.52 288.29 329.20
  Q 288.27 329.05 288.28 328.93
  Z"
/>
<path fill="#3b2959" d="
  M 287.80 330.50
  Q 287.76 330.76 287.65 330.98
  Q 287.02 332.24 287.37 330.89
  Q 287.46 330.56 287.80 330.50
  Z"
/>
<ellipse fill="#3b2959" cx="0.00" cy="0.00" transform="translate(314.90,330.85) rotate(-38.2)" rx="0.67" ry="0.55"/>
<path fill="#3b2959" d="
  M 179.48 331.07
  Q 179.90 330.66 180.24 330.70
  A 0.46 0.46 0.0 0 1 180.62 331.33
  Q 180.46 331.71 180.00 331.73
  Q 179.57 331.75 179.42 331.49
  A 0.35 0.35 0.0 0 1 179.48 331.07
  Z"
/>
<path fill="#3b2959" d="
  M 284.42 336.33
  Q 284.55 336.18 284.65 336.07
  Q 285.12 335.54 284.82 336.16
  Q 284.74 336.34 284.50 336.44
  Q 284.21 336.57 284.42 336.33
  Z"
/>
<path fill="#3b2959" d="
  M 283.33 338.23
  Q 283.39 338.03 283.46 337.89
  Q 283.77 337.29 283.69 337.96
  Q 283.67 338.18 283.46 338.33
  Q 283.25 338.48 283.33 338.23
  Z"
/>
<path fill="#47256d" d="
  M 200.15 343.27
  Q 202.29 340.94 202.90 337.67
  Q 203.24 337.58 203.49 337.72
  A 0.81 0.81 0.0 0 1 203.88 338.51
  Q 203.53 341.62 205.35 344.83
  Q 206.05 346.07 205.78 349.18
  Q 205.73 349.70 205.39 349.30
  L 200.15 343.27
  Z"
/>
<path fill="#3b2959" d="
  M 276.63 344.76
  Q 276.63 344.92 276.57 345.07
  Q 276.36 345.61 276.12 345.08
  Q 276.10 345.04 276.04 344.81
  Q 276.01 344.68 276.11 344.59
  Q 278.57 342.56 280.15 339.36
  Q 280.27 339.11 280.53 339.24
  L 280.76 339.36
  A 0.04 0.04 0.0 0 1 280.78 339.42
  Q 279.03 342.35 276.85 344.27
  Q 276.63 344.46 276.63 344.76
  Z"
/>
<ellipse fill="#3b2959" cx="0.00" cy="0.00" transform="translate(282.34,340.09) rotate(121.3)" rx="0.69" ry="0.19"/>
<path fill="#6824a0" d="
  M 197.20 339.91
  Q 197.41 340.42 197.06 340.81
  Q 196.99 340.51 196.88 340.34
  Q 197.27 340.03 197.20 339.91
  Z"
/>
<path fill="#6824a0" d="
  M 195.69 342.94
  Q 196.00 343.65 195.57 344.05
  Q 195.52 343.45 195.69 342.94
  Z"
/>
<path fill="#3b2959" d="
  M 288.45 348.49
  Q 288.50 348.29 288.64 347.95
  Q 289.06 346.96 288.82 348.01
  Q 288.77 348.24 288.66 348.56
  A 0.11 0.11 0.0 0 1 288.45 348.49
  Z"
/>
<path fill="#3b2959" d="
  M 287.32 350.82
  Q 287.67 350.39 287.69 350.32
  Q 288.08 349.26 287.88 350.37
  Q 287.79 350.84 287.44 351.25
  Q 287.26 351.46 287.20 351.19
  Q 287.17 351.01 287.32 350.82
  Z"
/>
<path fill="#3b2959" d="
  M 286.82 352.70
  Q 286.81 352.84 286.69 353.02
  Q 286.02 354.08 286.37 352.91
  Q 286.41 352.77 286.51 352.64
  Q 286.86 352.14 286.82 352.70
  Z"
/>
<path fill="#3b2959" d="
  M 285.33 354.78
  Q 285.87 354.48 285.65 355.05
  Q 285.52 355.40 285.33 355.30
  A 0.30 0.30 0.0 0 1 285.33 354.78
  Z"
/>
<ellipse fill="#3b2959" cx="0.00" cy="0.00" transform="translate(284.59,356.84) rotate(116.7)" rx="0.64" ry="0.14"/>
<path fill="#3b2959" d="
  M 283.44 358.82
  Q 283.86 358.33 283.71 358.96
  Q 283.66 359.16 283.56 359.26
  Q 283.22 359.58 283.33 359.07
  Q 283.36 358.92 283.44 358.82
  Z"
/>
<path fill="#3b2959" d="
  M 275.81 361.58
  L 276.28 363.25
  A 0.72 0.72 0.0 0 1 275.91 364.08
  L 274.33 364.86
  A 0.72 0.72 0.0 0 1 273.31 364.08
  L 273.57 362.73
  A 0.72 0.72 0.0 0 1 273.71 362.42
  L 274.55 361.33
  A 0.72 0.72 0.0 0 1 275.81 361.58
  Z"
/>
<path fill="#952ade" d="
  M 240.20 363.05
  A 0.38 0.37 52.3 0 1 240.80 363.13
  Q 241.06 363.61 240.64 364.17
  Q 240.43 364.44 239.93 364.23
  A 0.46 0.46 0.0 0 1 239.78 363.48
  L 240.20 363.05
  Z"
/>
<path fill="#3b2959" d="
  M 276.55 367.70
  Q 277.86 366.57 278.68 365.34
  A 0.06 0.06 0.0 0 1 278.79 365.40
  C 276.78 369.69 275.69 372.89 273.26 375.63
  Q 271.53 377.59 270.51 380.04
  A 0.14 0.12 41.6 0 1 270.28 380.04
  L 270.27 380.04
  Q 270.19 379.92 270.23 379.86
  Q 271.24 378.29 271.57 376.53
  Q 272.10 373.67 272.29 373.08
  Q 272.84 371.44 273.94 367.92
  A 0.60 0.60 0.0 0 1 274.96 367.69
  Q 275.30 368.07 275.82 368.12
  Q 276.03 368.15 276.55 367.70
  Z"
/>
<path fill="#952ade" d="
  M 188.76 370.47
  Q 188.79 371.01 188.48 371.30
  Q 188.44 370.70 188.76 370.47
  Z"
/>
<path fill="#6824a0" d="
  M 192.92 370.50
  Q 193.21 371.85 192.49 372.50
  Q 192.26 371.71 192.92 370.50
  Z"
/>
<path fill="#47256d" d="
  M 187.43 371.82
  A 0.18 0.18 0.0 0 1 187.48 372.07
  L 187.05 372.68
  A 5.10 0.74 -54.8 0 1 183.51 376.42
  L 183.42 376.36
  A 5.10 0.74 -54.8 0 1 185.76 371.77
  L 186.19 371.16
  A 0.18 0.18 0.0 0 1 186.44 371.12
  L 187.43 371.82
  Z"
/>
<path fill="#3b2959" d="
  M 188.48 371.30
  L 188.53 372.55
  Q 187.84 372.32 188.48 371.30
  Z"
/>
<path fill="#6824a0" d="
  M 192.49 372.50
  Q 192.59 372.75 192.37 372.87
  Q 192.03 373.07 191.45 372.89
  Q 191.91 372.09 192.49 372.50
  Z"
/>
<path fill="#6824a0" d="
  M 191.90 375.01
  A 0.22 0.22 0.0 0 1 192.02 375.29
  L 191.97 375.43
  A 9.35 1.07 -67.9 0 1 187.46 383.69
  L 187.37 383.65
  A 9.35 1.07 -67.9 0 1 189.89 374.59
  L 189.95 374.45
  A 0.22 0.22 0.0 0 1 190.23 374.33
  L 191.90 375.01
  Z"
/>
<path fill="#3b2959" d="
  M 230.49 376.58
  Q 230.55 376.72 230.58 376.87
  Q 230.66 377.29 230.25 377.16
  Q 229.80 377.02 229.35 376.45
  Q 228.96 375.96 229.55 375.72
  Q 230.46 375.35 231.33 375.37
  A 0.16 0.16 0.0 0 1 231.41 375.67
  L 230.66 376.10
  Q 230.38 376.27 230.49 376.58
  Z"
/>
<ellipse fill="#3b2959" cx="0.00" cy="0.00" transform="translate(181.99,382.93) rotate(137.7)" rx="0.66" ry="0.47"/>
<ellipse fill="#3b2959" cx="0.00" cy="0.00" transform="translate(268.02,384.39) rotate(120.2)" rx="1.76" ry="0.22"/>
<ellipse fill="#3b2959" cx="0.00" cy="0.00" transform="translate(192.00,386.37) rotate(120.0)" rx="0.99" ry="0.12"/>
<path fill="#3b2959" d="
  M 264.45 392.08
  A 4.20 0.19 -65.0 0 0 265.79 388.77
  A 4.25 0.21 -63.9 0 1 265.73 389.07
  A 4.18 0.19 -64.9 0 1 264.45 392.08
  Z"
/>
<ellipse fill="#3b2959" cx="0.00" cy="0.00" transform="translate(174.81,393.28) rotate(117.7)" rx="1.25" ry="0.85"/>
<path fill="#3b2959" d="
  M 264.45 392.08
  A 4.19 0.19 -64.9 0 1 262.57 395.88
  A 4.19 0.16 -64.1 0 1 262.24 396.37
  A 4.19 0.18 -64.9 0 0 264.45 392.08
  Z"
/>
<path fill="#47256d" d="
  M 171.15 401.40
  Q 171.00 401.89 170.69 402.11
  Q 170.28 402.38 170.38 401.90
  Q 170.82 399.60 172.27 397.66
  Q 172.70 397.08 172.78 397.80
  Q 173.01 399.79 171.15 401.40
  Z"
/>
<ellipse fill="#3b2959" cx="0.00" cy="0.00" transform="translate(248.29,400.95) rotate(-40.9)" rx="5.51" ry="0.25"/>
<path fill="#3b2959" d="
  M 261.81 397.56
  Q 261.80 397.79 261.70 397.90
  Q 261.35 398.36 261.43 397.78
  Q 261.47 397.49 261.57 397.36
  Q 261.86 396.96 261.81 397.56
  Z"
/>
<path fill="#3b2959" d="
  M 239.48 398.58
  Q 239.26 398.28 239.49 398.36
  Q 239.67 398.42 239.60 398.57
  A 0.07 0.07 0.0 0 1 239.48 398.58
  Z"
/>
<path fill="#3b2959" d="
  M 264.74 405.01
  Q 264.88 404.97 265.02 405.07
  Q 265.58 405.47 264.83 405.59
  Q 264.71 405.61 264.58 405.38
  Q 264.43 405.10 264.74 405.01
  Z"
/>
<path fill="#3b2959" d="
  M 198.77 405.47
  Q 198.81 405.24 199.33 405.43
  A 0.32 0.31 -64.0 0 1 199.49 405.90
  Q 199.37 406.07 199.06 405.96
  Q 198.71 405.83 198.77 405.47
  Z"
/>
<ellipse fill="#47256d" cx="0.00" cy="0.00" transform="translate(208.88,414.92) rotate(111.0)" rx="5.09" ry="1.71"/>
<ellipse fill="#3b2959" cx="0.00" cy="0.00" transform="translate(234.38,421.87) rotate(113.5)" rx="3.31" ry="0.24"/>
<path fill="#3b2959" d="
  M 232.48 425.95
  Q 232.81 425.56 232.72 426.38
  A 0.20 0.19 35.7 0 1 232.35 426.44
  Q 232.25 426.23 232.48 425.95
  Z"
/>
<path fill="#3b2959" d="
  M 218.59 438.50
  Q 218.60 438.26 218.83 438.41
  Q 219.09 438.57 218.81 438.70
  Q 218.58 438.80 218.59 438.50
  Z"
/>
</svg>
