<?xml version="1.0" encoding="UTF-8"?> <svg xmlns="http://www.w3.org/2000/svg" width="246" height="246" viewBox="0 0 246 246" fill="none"><g clip-path="url(#clip0_30_12)"><path d="M123 246C190.931 246 246 190.931 246 123C246 55.069 190.931 0 123 0C55.069 0 0 55.069 0 123C0 190.931 55.069 246 123 246Z" fill="#F8F5EA"></path><path d="M48.8895 180.559L51.4669 183.4L42.3578 191.66L47.683 197.534L45.1311 199.847L37.2284 191.13L48.8895 180.559Z" fill="#1E2F55"></path><path d="M50.235 203.316C49.6985 202.007 49.5423 200.656 49.7694 199.265C49.9965 197.874 50.6097 196.56 51.606 195.325C52.5938 194.099 53.7406 193.23 55.0464 192.716C56.3522 192.203 57.7033 192.069 59.0971 192.316C60.4909 192.563 61.8051 193.185 63.0399 194.178C64.2747 195.175 65.1632 196.327 65.6997 197.636C66.2362 198.944 66.3952 200.293 66.1709 201.678C65.9467 203.063 65.3421 204.369 64.3542 205.595C63.3579 206.83 62.2054 207.71 60.894 208.227C59.5825 208.746 58.2313 208.882 56.8376 208.635C55.4438 208.388 54.1295 207.767 52.8947 206.773C51.6599 205.777 50.7715 204.624 50.235 203.316ZM53.6243 199.958C53.4767 200.716 53.5363 201.442 53.8031 202.135C54.0699 202.83 54.5241 203.435 55.1685 203.954C55.8128 204.474 56.5026 204.789 57.2435 204.905C57.9844 205.022 58.7082 204.928 59.4179 204.622C60.1275 204.318 60.7577 203.821 61.3084 203.137C61.8506 202.461 62.194 201.749 62.336 200.997C62.4779 200.244 62.4154 199.518 62.1429 198.819C61.8704 198.121 61.4134 197.514 60.7719 196.994C60.1275 196.475 59.4377 196.16 58.7054 196.049C57.9702 195.938 57.2492 196.032 56.5452 196.33C55.8412 196.631 55.2167 197.116 54.6745 197.792C54.1239 198.476 53.7747 199.197 53.6271 199.955L53.6243 199.958Z" fill="#1E2F55"></path><path d="M64.9986 214.469C64.4167 213.609 64.1016 212.697 64.0533 211.735C64.0051 210.773 64.2407 209.833 64.7601 208.922L68.1807 210.866C67.8883 211.38 67.8117 211.894 67.9479 212.408C68.0842 212.924 68.4503 213.35 69.0436 213.685C69.5006 213.944 69.9208 214.051 70.3096 214.009C70.6957 213.966 70.9937 213.762 71.201 213.396C71.4224 213.007 71.4394 212.607 71.2521 212.192C71.0647 211.778 70.6985 211.201 70.1507 210.469L69.9122 210.131C69.231 209.231 68.7087 208.454 68.3396 207.801C67.9735 207.148 67.7492 206.464 67.6754 205.748C67.5988 205.033 67.7719 204.306 68.192 203.566C68.6405 202.779 69.2366 202.214 69.9832 201.868C70.7298 201.525 71.5501 201.4 72.4443 201.502C73.3384 201.601 74.2298 201.905 75.1183 202.41C76.0408 202.935 76.7476 203.583 77.2387 204.352C77.7298 205.121 77.9767 205.947 77.9796 206.833C77.9796 207.718 77.7326 208.598 77.2359 209.476L73.9857 207.628C74.2383 207.182 74.3121 206.762 74.2071 206.362C74.102 205.961 73.838 205.643 73.4179 205.402C73.0404 205.189 72.6714 205.11 72.308 205.167C71.9447 205.223 71.6779 205.399 71.5075 205.697C71.3855 205.913 71.3543 206.137 71.4195 206.37C71.482 206.603 71.6097 206.856 71.8028 207.131C71.9929 207.406 72.3222 207.835 72.7906 208.417C72.8417 208.462 73.0063 208.661 73.2873 209.016C73.8976 209.771 74.3774 210.466 74.7265 211.102C75.0757 211.738 75.2687 212.405 75.3056 213.106C75.3453 213.807 75.1495 214.534 74.7208 215.286C74.2354 216.141 73.6053 216.765 72.8332 217.154C72.0611 217.546 71.2095 217.693 70.2813 217.603C69.353 217.512 68.4078 217.194 67.4512 216.649C66.4009 216.053 65.5862 215.323 65.0043 214.466L64.9986 214.469Z" fill="#1E2F55"></path><path d="M87.7274 208.868L91.7809 210.072L94.1824 220.986L96.9671 211.613L100.626 212.7L96.1439 227.787L92.0903 226.584L89.7059 215.675L86.9212 225.048L83.2424 223.955L87.7245 208.868H87.7274Z" fill="#1E2F55"></path><path d="M104.24 228.375C103.081 227.56 102.227 226.507 101.671 225.21C101.114 223.916 100.924 222.479 101.1 220.901C101.273 219.337 101.773 217.986 102.599 216.85C103.425 215.715 104.489 214.875 105.798 214.335C107.107 213.796 108.546 213.611 110.124 213.785C111.702 213.961 113.068 214.454 114.226 215.269C115.384 216.084 116.238 217.134 116.795 218.423C117.351 219.712 117.544 221.139 117.371 222.703C117.195 224.282 116.695 225.641 115.869 226.783C115.043 227.927 113.976 228.767 112.67 229.309C111.365 229.851 109.92 230.033 108.344 229.86C106.766 229.684 105.401 229.19 104.242 228.375H104.24ZM105.29 223.723C105.574 224.441 106.014 225.02 106.613 225.463C107.209 225.905 107.918 226.172 108.742 226.263C109.565 226.354 110.317 226.249 111.004 225.951C111.691 225.65 112.25 225.182 112.684 224.543C113.119 223.904 113.383 223.149 113.479 222.275C113.573 221.415 113.479 220.628 113.195 219.919C112.912 219.209 112.466 218.63 111.864 218.187C111.259 217.744 110.547 217.478 109.727 217.387C108.906 217.296 108.154 217.401 107.476 217.702C106.794 218.003 106.238 218.468 105.807 219.101C105.372 219.734 105.108 220.478 105.015 221.338C104.918 222.212 105.012 223.007 105.296 223.725L105.29 223.723Z" fill="#1E2F55"></path><path d="M119.69 214.755L127.252 214.313C128.246 214.253 129.143 214.412 129.94 214.787C130.738 215.161 131.374 215.712 131.851 216.439C132.328 217.165 132.595 218.014 132.651 218.982C132.714 220.069 132.481 221.051 131.947 221.931C131.414 222.811 130.667 223.456 129.705 223.867L134.008 229.686L129.688 229.939L125.742 224.475L124.113 224.571L124.445 230.249L120.616 230.473L119.696 214.761L119.69 214.755ZM127.4 220.927C127.846 220.901 128.2 220.731 128.464 220.421C128.728 220.109 128.848 219.726 128.819 219.266C128.791 218.795 128.629 218.42 128.331 218.142C128.033 217.864 127.661 217.739 127.215 217.764L123.718 217.969L123.903 221.131L127.4 220.927Z" fill="#1E2F55"></path><path d="M138.116 216.356L133.707 217.285L132.998 213.915L145.493 211.287L146.203 214.656L141.851 215.57L144.383 227.603L140.648 228.389L138.116 216.356Z" fill="#1E2F55"></path><path d="M146.66 210.898L157.606 206.858L158.764 209.995L151.417 212.706L152.329 215.178L158.568 212.876L159.732 216.033L153.492 218.335L154.54 221.176L161.886 218.465L163.05 221.622L152.104 225.661L146.654 210.895L146.66 210.898Z" fill="#1E2F55"></path><path d="M159.448 206.069L163.129 203.986L172.653 209.833L167.839 201.323L171.16 199.444L178.909 213.143L175.228 215.227L165.721 209.371L170.535 217.881L167.197 219.768L159.448 206.069ZM161.358 202.717C160.649 202.433 160.058 201.874 159.584 201.042L161.724 199.833C161.821 200.003 161.94 200.122 162.082 200.185C162.224 200.247 162.363 200.242 162.499 200.162C162.579 200.117 162.658 200.037 162.738 199.926C162.817 199.813 162.888 199.694 162.953 199.569C163.121 199.279 163.291 199.032 163.462 198.828C163.632 198.626 163.856 198.448 164.132 198.291C164.793 197.917 165.486 197.874 166.204 198.158C166.922 198.445 167.515 198.998 167.981 199.821L165.857 201.022C165.761 200.852 165.642 200.733 165.5 200.67C165.358 200.608 165.224 200.611 165.099 200.682C164.997 200.738 164.895 200.84 164.799 200.988C164.699 201.133 164.64 201.229 164.62 201.272C164.452 201.561 164.282 201.814 164.109 202.024C163.936 202.237 163.706 202.422 163.419 202.583C162.758 202.958 162.071 203.004 161.361 202.72L161.358 202.717Z" fill="#1E2F55"></path><path d="M184.944 207.738C183.553 208.005 182.202 207.886 180.882 207.386C179.565 206.887 178.398 206.024 177.388 204.803C176.383 203.591 175.758 202.294 175.517 200.911C175.273 199.529 175.412 198.181 175.932 196.864C176.451 195.546 177.323 194.383 178.543 193.369C179.764 192.356 181.072 191.717 182.46 191.453C183.851 191.186 185.203 191.303 186.514 191.797C187.825 192.291 188.986 193.145 189.991 194.357C191.005 195.578 191.635 196.883 191.882 198.272C192.129 199.66 191.993 201.011 191.473 202.328C190.954 203.645 190.082 204.809 188.862 205.819C187.638 206.833 186.335 207.471 184.944 207.738ZM182.33 203.75C183.042 204.045 183.766 204.13 184.499 204.008C185.231 203.886 185.918 203.563 186.554 203.035C187.19 202.507 187.638 201.894 187.899 201.19C188.16 200.488 188.211 199.759 188.055 199.004C187.899 198.249 187.539 197.533 186.98 196.855C186.426 196.188 185.796 195.711 185.089 195.422C184.379 195.132 183.656 195.05 182.917 195.177C182.179 195.305 181.492 195.632 180.857 196.157C180.221 196.682 179.775 197.298 179.517 197.993C179.261 198.692 179.21 199.416 179.364 200.165C179.517 200.914 179.869 201.624 180.422 202.291C180.984 202.967 181.62 203.455 182.333 203.747L182.33 203.75Z" fill="#1E2F55"></path><path d="M198.822 195.493C197.863 195.893 196.909 196.018 195.955 195.873C195.001 195.728 194.13 195.311 193.341 194.618L195.93 191.655C196.375 192.044 196.864 192.222 197.394 192.191C197.928 192.16 198.416 191.887 198.868 191.374C199.214 190.979 199.401 190.587 199.438 190.199C199.472 189.81 199.33 189.478 199.015 189.202C198.68 188.91 198.289 188.81 197.846 188.913C197.403 189.012 196.764 189.256 195.935 189.648L195.555 189.812C194.539 190.301 193.67 190.658 192.958 190.885C192.242 191.115 191.527 191.195 190.812 191.127C190.096 191.059 189.418 190.744 188.776 190.184C188.095 189.588 187.661 188.89 187.471 188.089C187.28 187.289 187.326 186.46 187.604 185.606C187.882 184.751 188.356 183.937 189.029 183.167C189.727 182.367 190.505 181.805 191.357 181.475C192.208 181.149 193.068 181.072 193.934 181.246C194.8 181.419 195.615 181.839 196.375 182.503L193.914 185.319C193.528 184.981 193.131 184.825 192.719 184.848C192.308 184.87 191.941 185.066 191.623 185.43C191.34 185.756 191.186 186.102 191.169 186.471C191.152 186.84 191.271 187.136 191.53 187.36C191.717 187.525 191.933 187.598 192.171 187.581C192.413 187.564 192.685 187.49 192.992 187.36C193.298 187.229 193.784 186.991 194.451 186.647C194.505 186.608 194.732 186.486 195.138 186.281C196.001 185.833 196.778 185.501 197.468 185.288C198.161 185.075 198.853 185.018 199.549 185.12C200.244 185.222 200.917 185.557 201.57 186.128C202.311 186.775 202.796 187.516 203.023 188.351C203.25 189.185 203.228 190.051 202.952 190.942C202.677 191.834 202.177 192.696 201.454 193.525C200.659 194.434 199.784 195.087 198.825 195.487L198.822 195.493Z" fill="#1E2F55"></path><path d="M35.582 171.594C27.3529 156.819 23.0013 140.014 23.0013 123C23.0013 120.564 23.0893 118.103 23.2653 115.684L24.3979 115.767C24.2247 118.16 24.1367 120.592 24.1367 123.002C24.1367 139.827 28.4372 156.438 36.5727 171.046L35.582 171.6V171.594Z" fill="#004987"></path><path d="M210.444 171.549L209.45 170.995C217.568 156.402 221.86 139.805 221.86 123C221.86 120.59 221.772 118.154 221.599 115.764L222.732 115.682C222.908 118.098 222.996 120.559 222.996 122.997C222.996 139.995 218.656 156.782 210.441 171.546L210.444 171.549Z" fill="#004987"></path><path d="M44.396 69.2253C43.621 69.5943 42.8035 69.7334 41.9406 69.6397C41.0776 69.546 40.2516 69.2224 39.4624 68.6632C38.6733 68.104 38.0942 67.437 37.7281 66.6563C37.3619 65.8786 37.2228 65.0639 37.3108 64.2123C37.3988 63.3607 37.7167 62.5517 38.2617 61.7824C38.7329 61.1182 39.3006 60.6044 39.9677 60.2439C40.6348 59.8806 41.3388 59.6904 42.0853 59.6705C42.829 59.6506 43.5614 59.8039 44.2739 60.1332L43.4138 61.3453C42.9114 61.1466 42.4032 61.0614 41.8866 61.087C41.37 61.1125 40.8874 61.2459 40.4389 61.4901C39.9904 61.7342 39.6072 62.0776 39.2978 62.5176C38.9146 63.057 38.7017 63.6304 38.6506 64.235C38.6023 64.8425 38.7187 65.4301 39.0026 65.9949C39.2864 66.5598 39.7208 67.0537 40.3084 67.4682C40.8988 67.8883 41.5119 68.1381 42.1393 68.2176C42.7694 68.2971 43.3627 68.2147 43.9247 67.9649C44.4868 67.7151 44.9608 67.3177 45.3469 66.7727C45.8323 66.0886 46.048 65.3591 45.9969 64.5813C45.9458 63.8035 45.6364 63.1052 45.0659 62.4864L45.926 61.2743C46.4965 61.8364 46.8968 62.4722 47.1267 63.1847C47.3595 63.8972 47.4106 64.6267 47.2857 65.3761C47.1608 66.1255 46.8599 66.8352 46.383 67.5079C45.8323 68.2829 45.1709 68.8563 44.396 69.2253Z" fill="#1E2F55"></path><path d="M44.9211 53.5448L45.8578 52.486L55.7731 55.8724L54.8023 56.9681L52.0631 56.0144L49.1875 59.2617L50.4677 61.8647L49.4969 62.9605L44.9183 53.5476L44.9211 53.5448ZM50.78 55.5517L46.6612 54.1324L48.5687 58.0496L50.78 55.5517Z" fill="#1E2F55"></path><path d="M50.5501 47.507L53.6612 44.6599C54.1125 44.2455 54.5979 43.9701 55.1146 43.831C55.6312 43.6919 56.1365 43.6948 56.6275 43.8395C57.1186 43.9843 57.5558 44.2653 57.9361 44.6798C58.4045 45.1907 58.6486 45.784 58.6742 46.4624C58.6997 47.1408 58.501 47.7682 58.0809 48.3473L62.7277 49.4685L61.5327 50.5614L57.0051 49.4628L55.5063 50.8339L58.1178 53.6867L57.0732 54.6405L50.5472 47.507H50.5501ZM56.7212 48.0038C57.0902 47.666 57.2861 47.2828 57.3116 46.8485C57.3372 46.417 57.1868 46.0224 56.8603 45.6648C56.5339 45.3071 56.1535 45.1226 55.722 45.1084C55.2906 45.0942 54.8875 45.256 54.5213 45.5938L52.4519 47.4872L54.6547 49.8943L56.7241 48.0009L56.7212 48.0038Z" fill="#1E2F55"></path><path d="M58.5095 40.4559L60.173 39.2296L68.351 42.988L63.673 36.6465L64.8113 35.8063L70.5509 43.5869L68.8875 44.8132L60.7095 41.0549L65.3875 47.3963L64.2492 48.2366L58.5095 40.4559Z" fill="#1E2F55"></path><path d="M67.7918 33.9328L68.9925 33.1834L74.1077 41.387L72.907 42.1364L67.7918 33.9328Z" fill="#1E2F55"></path><path d="M77.8916 38.5881C77.0343 38.5569 76.2424 38.3014 75.5214 37.8217C74.8004 37.342 74.2156 36.6721 73.7756 35.812C73.3356 34.9519 73.1312 34.0918 73.1625 33.2317C73.1965 32.3716 73.4492 31.5853 73.9204 30.8728C74.3916 30.1603 75.0473 29.5869 75.8847 29.1582C76.6085 28.7864 77.3494 28.5934 78.1073 28.5792C78.8653 28.565 79.5806 28.7211 80.2505 29.0475C80.9204 29.374 81.4966 29.848 81.9792 30.4697L80.6564 31.1481C80.3016 30.7422 79.89 30.4299 79.4216 30.2142C78.9532 29.9985 78.4622 29.8934 77.9512 29.902C77.4403 29.9105 76.9435 30.0382 76.4638 30.2852C75.8762 30.5861 75.4192 30.9948 75.0956 31.5115C74.772 32.0281 74.6045 32.6015 74.596 33.2345C74.5875 33.8703 74.7464 34.5062 75.0729 35.142C75.405 35.7864 75.8308 36.2917 76.3502 36.6522C76.8725 37.0155 77.4374 37.2142 78.0506 37.254C78.6637 37.2937 79.2683 37.1575 79.8616 36.8537C80.6082 36.4705 81.1361 35.9227 81.4484 35.2102C81.7606 34.4977 81.8089 33.7341 81.5903 32.9222L82.9131 32.2438C83.1601 33.0046 83.2197 33.754 83.0976 34.492C82.9756 35.23 82.6832 35.9028 82.2262 36.5103C81.7692 37.1177 81.173 37.6088 80.4435 37.9835C79.5976 38.4178 78.746 38.6193 77.8888 38.5881H77.8916Z" fill="#1E2F55"></path><path d="M83.2112 25.8399L89.4987 23.4356L89.9529 24.6221L84.9853 26.5212L85.9703 29.0958L90.2595 27.4551L90.7079 28.6302L86.4188 30.271L87.5344 33.1834L92.502 31.2843L92.9561 32.4709L86.6686 34.8752L83.214 25.8456L83.2112 25.8399Z" fill="#1E2F55"></path><path d="M92.7177 22.3825L96.7883 21.2754C97.3787 21.1136 97.9351 21.0909 98.4602 21.2044C98.9825 21.318 99.431 21.5507 99.8029 21.9056C100.175 22.2604 100.433 22.7089 100.583 23.2539C100.765 23.9238 100.711 24.5625 100.425 25.1757C100.135 25.7888 99.6723 26.2572 99.0336 26.5808L102.65 29.7061L101.086 30.1319L97.5632 27.0804L95.6046 27.614L96.6179 31.3468L95.2526 31.7187L92.7177 22.3881V22.3825ZM97.9776 25.6497C98.4602 25.5191 98.8122 25.2665 99.0308 24.8946C99.2493 24.5228 99.2976 24.1027 99.1699 23.6343C99.0421 23.1688 98.7895 22.8281 98.4119 22.6181C98.0344 22.408 97.6029 22.3683 97.1204 22.4988L94.4152 23.234L95.2696 26.3821L97.9748 25.6469L97.9776 25.6497Z" fill="#1E2F55"></path><path d="M106.354 28.5054C105.537 28.2073 104.861 27.7191 104.325 27.0378C103.788 26.3594 103.445 25.5362 103.297 24.5739C103.15 23.6173 103.232 22.7373 103.538 21.9311C103.845 21.125 104.345 20.4579 105.034 19.9271C105.724 19.3962 106.55 19.0585 107.513 18.9108C108.475 18.7632 109.366 18.837 110.181 19.1379C110.998 19.436 111.674 19.9242 112.208 20.5998C112.744 21.2754 113.085 22.0901 113.232 23.0467C113.38 24.009 113.3 24.8975 112.994 25.7065C112.687 26.5155 112.188 27.1854 111.498 27.7162C110.808 28.247 109.982 28.5848 109.02 28.7325C108.055 28.8801 107.166 28.8063 106.349 28.5082L106.354 28.5054ZM105.486 26.1862C105.869 26.6943 106.352 27.0605 106.933 27.2904C107.515 27.5204 108.148 27.58 108.832 27.4749C109.517 27.3699 110.101 27.1201 110.59 26.7284C111.075 26.3367 111.424 25.8399 111.64 25.241C111.853 24.642 111.904 23.9834 111.796 23.2681C111.688 22.5585 111.441 21.951 111.058 21.4429C110.675 20.9348 110.192 20.5686 109.61 20.3443C109.028 20.1201 108.395 20.0605 107.711 20.1655C107.027 20.2705 106.44 20.5175 105.954 20.9064C105.469 21.2953 105.117 21.7892 104.904 22.3881C104.691 22.9871 104.637 23.6428 104.748 24.3496C104.858 25.065 105.105 25.6781 105.489 26.1862H105.486Z" fill="#1E2F55"></path><path d="M117.36 27.3813C116.806 27.1201 116.372 26.7397 116.054 26.2373C115.736 25.7349 115.563 25.1558 115.532 24.4944L116.994 24.4263C117.022 25.0621 117.235 25.5674 117.632 25.9392C118.03 26.3111 118.549 26.4843 119.193 26.453C119.702 26.4303 120.11 26.2856 120.425 26.0216C120.74 25.7576 120.888 25.4028 120.865 24.9599C120.851 24.6534 120.758 24.4036 120.59 24.2105C120.42 24.0175 120.204 23.8585 119.94 23.7393C119.676 23.6173 119.29 23.4725 118.782 23.3022C118.027 23.0467 117.445 22.8225 117.033 22.6266C116.622 22.4307 116.281 22.1724 116.017 21.846C115.753 21.5195 115.608 21.0937 115.583 20.5714C115.557 20.0236 115.674 19.5467 115.935 19.1408C116.193 18.7348 116.554 18.4169 117.011 18.1898C117.468 17.9627 117.976 17.8378 118.529 17.8123C119.157 17.7839 119.71 17.8889 120.19 18.1302C120.67 18.3715 121.041 18.715 121.308 19.1606C121.575 19.6091 121.723 20.1286 121.748 20.7247L120.335 20.79C120.309 20.2592 120.133 19.8362 119.804 19.5211C119.474 19.2061 119.057 19.0584 118.549 19.084C118.098 19.1039 117.729 19.2486 117.445 19.5155C117.161 19.7823 117.025 20.1059 117.042 20.4834C117.056 20.773 117.155 21.0114 117.34 21.1959C117.524 21.3804 117.766 21.5309 118.055 21.6473C118.348 21.7636 118.79 21.9169 119.389 22.1071C120.037 22.3115 120.559 22.5159 120.959 22.7231C121.359 22.9303 121.68 23.2028 121.921 23.5378C122.163 23.8727 122.296 24.3042 122.319 24.8265C122.344 25.3971 122.231 25.8967 121.975 26.3253C121.72 26.7539 121.356 27.0861 120.885 27.3245C120.414 27.5629 119.866 27.6992 119.247 27.7276C118.538 27.7588 117.908 27.6453 117.357 27.3841L117.36 27.3813Z" fill="#1E2F55"></path><path d="M131.192 27.2762C130.491 26.7795 129.972 26.1323 129.631 25.3346C129.29 24.537 129.171 23.657 129.273 22.6947C129.376 21.7324 129.676 20.9035 130.176 20.2024C130.676 19.5013 131.317 18.9818 132.103 18.644C132.89 18.3062 133.75 18.187 134.687 18.2863C135.496 18.3715 136.222 18.6185 136.864 19.0215C137.505 19.4275 138.016 19.9498 138.4 20.5885C138.78 21.23 139.004 21.9396 139.067 22.7259L137.588 22.5698C137.514 22.0362 137.341 21.5479 137.068 21.1108C136.796 20.6736 136.441 20.316 136.009 20.0434C135.578 19.7709 135.093 19.6063 134.556 19.5495C133.897 19.4786 133.293 19.5722 132.739 19.8249C132.186 20.0775 131.732 20.4664 131.377 20.9915C131.022 21.5167 130.806 22.1355 130.73 22.848C130.653 23.569 130.732 24.2247 130.971 24.8123C131.209 25.3999 131.573 25.8796 132.064 26.2487C132.555 26.6177 133.134 26.8362 133.798 26.9072C134.63 26.9952 135.374 26.8277 136.026 26.4019C136.679 25.9761 137.136 25.3658 137.4 24.5682L138.879 24.7243C138.666 25.4964 138.309 26.1578 137.801 26.7057C137.292 27.2564 136.679 27.6594 135.964 27.9149C135.249 28.1704 134.482 28.2556 133.665 28.1676C132.719 28.0682 131.896 27.7702 131.195 27.2734L131.192 27.2762Z" fill="#1E2F55"></path><path d="M142.521 28.8687C141.874 28.2896 141.428 27.5828 141.181 26.7539C140.934 25.925 140.923 25.0337 141.144 24.0828C141.363 23.1404 141.763 22.3541 142.351 21.7211C142.936 21.088 143.648 20.6537 144.483 20.4153C145.32 20.1797 146.211 20.1712 147.162 20.3926C148.113 20.614 148.911 21.0142 149.558 21.5933C150.205 22.1724 150.651 22.8764 150.898 23.7024C151.145 24.5284 151.159 25.4141 150.941 26.3537C150.719 27.3046 150.316 28.0966 149.731 28.7353C149.144 29.374 148.434 29.8083 147.597 30.0467C146.759 30.2823 145.868 30.2908 144.917 30.0694C143.966 29.848 143.168 29.4478 142.521 28.8687ZM142.575 26.3934C142.743 27.0066 143.055 27.5289 143.509 27.9547C143.963 28.3805 144.528 28.6757 145.204 28.8318C145.879 28.9879 146.515 28.9737 147.111 28.7892C147.707 28.6047 148.218 28.2754 148.638 27.7957C149.059 27.3188 149.351 26.7255 149.516 26.0216C149.677 25.3233 149.674 24.6675 149.507 24.0544C149.34 23.4413 149.027 22.9218 148.57 22.4988C148.113 22.0759 147.548 21.7835 146.873 21.6274C146.197 21.4713 145.561 21.4826 144.965 21.6643C144.369 21.846 143.861 22.1724 143.441 22.6493C143.021 23.1262 142.728 23.7138 142.567 24.4121C142.402 25.1189 142.405 25.7774 142.572 26.3934H142.575Z" fill="#1E2F55"></path><path d="M155.11 22.6323L157.055 23.3306L158.48 32.2183L161.148 24.8038L162.479 25.2835L159.207 34.3813L157.262 33.683L155.837 24.7953L153.169 32.2097L151.838 31.73L155.11 22.6323Z" fill="#1E2F55"></path><path d="M167.697 37.8387C167.237 37.1007 167.007 36.3002 167.004 35.4316C167.001 34.5658 167.237 33.7085 167.714 32.857C168.188 32.0139 168.793 31.3695 169.533 30.9267C170.271 30.481 171.078 30.2653 171.946 30.271C172.815 30.2795 173.675 30.5208 174.524 30.9977C175.372 31.4746 176.028 32.082 176.488 32.8201C176.948 33.5581 177.178 34.3586 177.184 35.2215C177.189 36.0845 176.956 36.936 176.482 37.7791C176.005 38.6307 175.395 39.2779 174.654 39.7264C173.913 40.1749 173.107 40.3935 172.239 40.3878C171.37 40.3793 170.51 40.138 169.661 39.6611C168.81 39.1842 168.157 38.5768 167.697 37.8387ZM168.441 35.477C168.429 36.1129 168.583 36.7004 168.9 37.2398C169.218 37.7791 169.678 38.2163 170.283 38.5569C170.887 38.8947 171.501 39.0593 172.125 39.0508C172.75 39.0423 173.332 38.8663 173.868 38.5257C174.405 38.185 174.853 37.6996 175.208 37.0666C175.56 36.4421 175.739 35.812 175.75 35.1733C175.761 34.5374 175.605 33.9527 175.287 33.4162C174.969 32.8825 174.507 32.4454 173.902 32.1047C173.297 31.7641 172.684 31.5995 172.063 31.6051C171.441 31.6108 170.859 31.784 170.323 32.1246C169.786 32.4652 169.34 32.9478 168.988 33.5723C168.634 34.2053 168.452 34.8383 168.441 35.4742V35.477Z" fill="#1E2F55"></path><path d="M181.475 35.3748L186.957 39.2808L186.222 40.314L181.89 37.2284L179.744 40.2402L183.485 42.9057L182.75 43.9389L179.009 41.2735L177.016 44.0695L175.864 43.2491L181.473 35.3748H181.475Z" fill="#1E2F55"></path><path d="M189.08 41.035L190.173 41.932L184.036 49.4032L182.943 48.5062L189.08 41.035Z" fill="#1E2F55"></path><path d="M187.902 52.0942C187.655 51.271 187.644 50.4422 187.868 49.6048C188.092 48.7674 188.541 48.001 189.214 47.3055C189.886 46.61 190.636 46.1417 191.462 45.9004C192.288 45.6563 193.114 45.6449 193.94 45.8635C194.766 46.0821 195.518 46.5192 196.194 47.1749C196.778 47.7426 197.199 48.3813 197.454 49.0967C197.71 49.812 197.792 50.5387 197.698 51.2767C197.604 52.0148 197.34 52.7131 196.906 53.3688L195.839 52.3327C196.111 51.8671 196.273 51.3761 196.33 50.8651C196.387 50.3542 196.327 49.8546 196.154 49.372C195.981 48.8894 195.703 48.4608 195.314 48.0861C194.84 47.6263 194.306 47.3254 193.716 47.1834C193.122 47.0415 192.526 47.067 191.922 47.2629C191.317 47.4588 190.766 47.8108 190.267 48.3274C189.761 48.8469 189.421 49.4117 189.245 50.022C189.069 50.6323 189.06 51.2341 189.222 51.8246C189.384 52.415 189.702 52.9458 190.182 53.4114C190.783 53.9933 191.47 54.3197 192.248 54.3878C193.023 54.456 193.761 54.2573 194.462 53.7889L195.529 54.825C194.888 55.3019 194.195 55.5999 193.457 55.7191C192.719 55.8384 191.987 55.7788 191.266 55.5403C190.545 55.3019 189.889 54.8959 189.299 54.3225C188.617 53.6611 188.152 52.9174 187.905 52.0971L187.902 52.0942Z" fill="#1E2F55"></path><path d="M201.562 52.9799L202.493 54.0444L195.212 60.4057L194.28 59.3412L201.562 52.9799Z" fill="#1E2F55"></path><path d="M198.595 63.707C198.482 62.8441 198.601 62.018 198.956 61.2289C199.311 60.4369 199.878 59.7557 200.665 59.1766C201.442 58.6032 202.26 58.2682 203.117 58.166C203.974 58.0638 204.798 58.1973 205.584 58.5634C206.37 58.9296 207.054 59.503 207.633 60.2893C208.21 61.0756 208.556 61.8988 208.669 62.7589C208.783 63.6219 208.664 64.4451 208.315 65.2342C207.965 66.0233 207.401 66.7018 206.62 67.2752C205.834 67.8542 205.01 68.192 204.153 68.2942C203.293 68.3964 202.47 68.2658 201.681 67.8996C200.892 67.5335 200.208 66.9601 199.631 66.1738C199.052 65.3875 198.709 64.5643 198.595 63.7042V63.707ZM200.247 61.8619C199.975 62.4382 199.873 63.0343 199.941 63.6559C200.006 64.2776 200.247 64.8652 200.656 65.4244C201.068 65.9836 201.559 66.3867 202.132 66.6336C202.705 66.8834 203.307 66.9629 203.937 66.8749C204.568 66.7869 205.175 66.5286 205.76 66.0971C206.339 65.6713 206.762 65.1717 207.034 64.5955C207.307 64.0193 207.406 63.4232 207.338 62.8043C207.267 62.1855 207.029 61.5979 206.617 61.0387C206.205 60.4795 205.717 60.0764 205.147 59.8238C204.576 59.574 203.977 59.4917 203.347 59.5797C202.717 59.6677 202.112 59.926 201.536 60.3489C200.951 60.7776 200.523 61.28 200.253 61.8562L200.247 61.8619Z" fill="#1E2F55"></path><path d="M96.1694 70.1592H75.4617V164.779H96.1694V70.1592Z" fill="#BB2625"></path><path d="M75.4617 164.779V142.657H121.339L135.731 164.779H75.4617Z" fill="#BB2625"></path><path d="M120.266 70.1592H99.5587V138.936H120.266V70.1592Z" fill="#BB2625"></path><path d="M170.538 70.1592H149.831V138.936H170.538V70.1592Z" fill="#BB2625"></path><path d="M170.538 132.677L120.252 70.162L99.5587 70.1649V76.4297L149.833 138.93L170.538 138.925V132.677Z" fill="#BB2625"></path><path d="M125.367 142.657L139.756 164.779H170.538V142.657H125.367ZM153.512 153.915C153.333 154.574 152.519 154.949 152.303 155.108C152.087 155.267 152.32 157.251 152.334 157.75C152.348 158.25 152.709 158.517 152.922 158.642C153.135 158.767 153.37 159.099 153.226 159.136C153.081 159.172 152.578 159.144 152.241 159.15C151.9 159.158 152.107 158.869 152.031 158.662C151.957 158.454 151.818 158.511 151.713 158.329C151.605 158.145 151.855 157.941 151.718 157.248C151.582 156.552 151.014 155.61 151.014 155.61C151.014 155.61 150.475 157.123 150.35 157.782C150.228 158.44 150.469 158.483 150.716 158.704C150.963 158.926 151.037 159.113 150.989 159.153C150.94 159.192 150.512 159.184 150.191 159.204C149.87 159.224 149.913 159.087 149.902 158.934C149.89 158.784 149.657 158.874 149.601 158.562C149.541 158.25 149.618 157.977 149.757 157.336C149.896 156.697 149.842 156.254 149.78 155.797C149.717 155.34 149.711 154.983 149.711 154.983C149.711 154.983 149.039 154.915 148.57 154.846C148.102 154.778 147.582 154.932 146.739 154.943C145.896 154.954 144.92 154.594 144.673 154.543C144.426 154.492 144.043 155.113 143.861 155.119C143.676 155.125 143.472 154.909 143.259 155.142C143.046 155.372 142.887 156.669 142.984 157.214C143.08 157.759 143.668 158.588 143.923 158.721C144.176 158.855 144.344 159.215 144.204 159.238C144.065 159.26 143.478 159.238 143.256 159.209C143.035 159.184 143.026 158.974 142.99 158.911C142.95 158.849 142.845 158.775 142.697 158.764C142.552 158.752 142.493 157.711 142.339 157.183C142.186 156.655 141.667 155.655 141.667 155.655C141.667 155.655 140.94 156.348 140.775 157.214C140.611 158.08 140.838 158.165 141.071 158.443C141.303 158.724 141.584 159.204 141.428 159.241C141.275 159.277 140.662 159.241 140.432 159.207C140.202 159.172 140.264 159.053 140.179 158.69C140.097 158.329 139.859 158.61 139.745 158.574C139.631 158.537 140.245 158.253 140.06 156.731C139.961 155.911 139.796 155.383 140.125 155C140.455 154.616 140.477 154.324 140.611 153.478C140.741 152.632 140.338 152.013 140.296 151.037C140.253 150.061 140.696 149.041 140.696 149.041C139.947 149.22 140.267 153.194 140.157 153.436C140.046 153.677 140.06 154.381 139.966 154.517C139.873 154.656 139.887 154.702 139.762 155.056C139.637 155.414 139.427 155.936 139.384 156.107C139.339 156.274 139.191 154.951 139.322 154.631C139.453 154.313 139.524 154.086 139.736 153.475C139.949 152.865 139.714 151.613 139.85 149.941C139.986 148.269 140.809 147.443 141.758 147.228C142.706 147.012 145.876 147.88 147.313 148.127C148.749 148.374 149.709 147.949 150.708 147.824C151.707 147.699 152.201 147.909 152.774 147.943C153.348 147.977 153.958 147.815 154.069 147.713C154.179 147.611 154.537 147.787 154.716 147.801C154.895 147.815 155.031 147.758 155.031 147.758C155.031 147.758 154.974 147.548 154.96 147.423C154.946 147.301 155.028 147.202 155.082 147.301C155.133 147.404 155.267 147.551 155.363 147.585C155.457 147.619 155.562 147.528 155.9 147.489C156.24 147.449 156.68 147.421 156.68 147.421C156.68 147.421 156.76 147.29 156.924 147.103C157.089 146.915 156.885 147.511 156.885 147.511C156.885 147.511 157.063 147.611 157.112 147.665C157.16 147.719 156.856 148.051 156.856 148.051C156.856 148.051 157.174 148.471 157.185 148.616C157.2 148.758 157.259 149.26 157.432 149.66C157.608 150.061 158.122 150.237 157.784 150.813C157.447 151.389 157.018 151.136 156.819 151.037C156.621 150.938 156.584 151.043 156.3 151.074C156.019 151.105 155.846 151.094 155.488 151.046C155.13 150.997 154.736 151.275 154.395 151.497C154.054 151.721 153.694 153.251 153.518 153.91L153.512 153.915ZM166.573 157.191C166.536 157.364 166.329 157.807 166.317 157.685C166.309 157.563 166.158 157.265 166.09 156.987C166.022 156.709 166.232 156.604 166.371 156.039C166.51 155.474 166.243 155 166.243 155C166.243 155 166.255 155.224 166.218 155.678C166.181 156.132 166.048 156.717 165.855 156.973C165.662 157.231 165.548 157.503 165.5 157.767C165.451 158.031 165.488 158.454 165.508 158.596C165.525 158.738 165.542 158.979 165.48 159.05C165.417 159.121 164.941 159.153 164.853 159.138C164.765 159.124 164.972 158.812 165.02 158.656C165.068 158.5 164.645 157.804 164.645 157.804C164.645 157.804 164.577 158.392 164.594 158.548C164.611 158.704 164.702 159.147 164.594 159.136C164.486 159.124 164.018 159.136 164.027 159.087C164.035 159.039 164.134 158.931 164.072 158.71C164.009 158.488 164.015 158.267 164.046 158.097C164.075 157.926 164.046 157.705 163.808 157.307C163.567 156.907 163.518 156.706 163.518 156.706C163.518 156.706 163.192 156.919 162.63 156.998C162.068 157.08 161.406 156.998 161.029 156.947C160.651 156.896 160.175 157.018 160.175 157.018C160.175 157.018 160.177 157.052 160.211 157.248C160.245 157.441 160.328 157.353 160.339 157.503C160.35 157.654 160.248 157.881 160.16 158.088C160.072 158.295 160.084 158.883 160.055 159.005C160.027 159.127 159.323 159.067 159.258 159.036C159.192 159.005 159.397 158.826 159.468 158.761C159.539 158.696 159.468 157.958 159.468 157.958C159.468 157.958 159.258 158.179 159.192 158.355C159.127 158.531 159.141 159.019 159.11 159.079C159.079 159.138 158.327 159.127 158.304 159.082C158.281 159.039 158.653 158.744 158.653 158.576C158.653 158.409 158.565 157.594 158.468 157.373C158.372 157.151 158.273 157.228 157.912 157.112C157.552 156.998 157.106 157.254 156.47 157.103C155.834 156.953 155.525 157.239 155.525 157.239L155.028 156.604C155.028 156.604 155.275 156.43 155.695 155.945C156.115 155.46 156.175 154.753 156.175 154.753C156.175 154.753 155.55 154.466 155.434 154.441C155.318 154.415 155.329 154.381 155.573 154.293C155.814 154.205 156.263 154.191 156.263 154.191C156.263 154.191 156.283 154.14 156.161 154.074C156.039 154.009 155.647 153.893 155.687 153.816C155.726 153.739 156.28 153.626 156.592 153.765C156.904 153.904 157.242 154.046 157.645 153.921C158.051 153.796 159.675 153.126 162.176 152.93C164.677 152.734 165.767 153.728 166.394 154.597C167.018 155.465 166.649 156.164 166.559 156.572C166.468 156.978 166.612 157.004 166.578 157.18L166.573 157.191Z" fill="#BB2625"></path><path d="M102.724 178.503H107.317V179.633H103.99V181.072H106.828V182.202H103.99V183.877H107.317V185.007H102.724V178.503Z" fill="#1E2F55"></path><path d="M109.667 184.845C109.341 184.677 109.091 184.442 108.915 184.138C108.739 183.834 108.651 183.488 108.651 183.096H109.903C109.903 183.357 109.991 183.57 110.167 183.735C110.343 183.9 110.573 183.982 110.854 183.982C111.064 183.982 111.251 183.937 111.416 183.843C111.577 183.752 111.66 183.621 111.66 183.454C111.66 183.298 111.597 183.181 111.478 183.108C111.356 183.034 111.154 182.957 110.873 182.875C110.76 182.847 110.649 182.815 110.541 182.778L110.354 182.722C110.025 182.619 109.758 182.517 109.556 182.421C109.355 182.324 109.184 182.179 109.04 181.986C108.895 181.793 108.824 181.541 108.824 181.226C108.824 180.911 108.903 180.624 109.06 180.377C109.216 180.13 109.434 179.937 109.715 179.801C109.993 179.662 110.314 179.593 110.678 179.593C111.041 179.593 111.39 179.664 111.691 179.809C111.992 179.954 112.23 180.153 112.403 180.411C112.577 180.669 112.665 180.956 112.665 181.277H111.421C111.421 181.115 111.356 180.979 111.223 180.874C111.089 180.769 110.925 180.715 110.732 180.715C110.547 180.715 110.397 180.76 110.277 180.848C110.158 180.939 110.099 181.055 110.099 181.203C110.099 181.351 110.158 181.45 110.277 181.521C110.397 181.592 110.598 181.671 110.879 181.756C110.908 181.762 110.981 181.785 111.106 181.822C111.523 181.952 111.844 182.063 112.066 182.154C112.287 182.245 112.483 182.395 112.656 182.597C112.826 182.801 112.912 183.074 112.912 183.414C112.912 183.755 112.821 184.053 112.642 184.308C112.463 184.564 112.213 184.76 111.893 184.893C111.572 185.027 111.206 185.098 110.794 185.098C110.382 185.098 109.996 185.012 109.673 184.845H109.667Z" fill="#1E2F55"></path><path d="M114.879 180.862H113.902V179.724H114.879V178.503H116.148V179.724H117.116V180.862H116.148V185.01H114.879V180.862Z" fill="#1E2F55"></path><path d="M117.987 184.825C117.822 184.66 117.74 184.459 117.74 184.22C117.74 183.982 117.822 183.78 117.987 183.616C118.152 183.451 118.353 183.369 118.592 183.369C118.83 183.369 119.032 183.451 119.196 183.616C119.361 183.78 119.443 183.982 119.443 184.22C119.443 184.459 119.361 184.66 119.196 184.825C119.032 184.99 118.83 185.072 118.592 185.072C118.353 185.072 118.152 184.99 117.987 184.825Z" fill="#1E2F55"></path><path d="M123.942 179.642H123.437V178.503H125.203V185.007H123.942V179.642Z" fill="#1E2F55"></path><path d="M130.443 178.685C130.815 178.889 131.107 179.168 131.326 179.525C131.541 179.883 131.652 180.289 131.652 180.746C131.652 181.169 131.55 181.558 131.343 181.91L129.481 185.007H128.073L129.259 183.014H129.137C128.703 183.008 128.305 182.906 127.945 182.71C127.584 182.512 127.298 182.242 127.088 181.901C126.878 181.561 126.77 181.175 126.77 180.746C126.77 180.292 126.878 179.883 127.096 179.525C127.312 179.168 127.607 178.887 127.979 178.685C128.351 178.481 128.76 178.381 129.211 178.381C129.662 178.381 130.071 178.484 130.443 178.685ZM128.232 181.308C128.337 181.487 128.479 181.629 128.655 181.731C128.831 181.833 129.015 181.884 129.211 181.884C129.407 181.884 129.591 181.833 129.767 181.731C129.943 181.629 130.085 181.487 130.19 181.308C130.295 181.129 130.349 180.93 130.349 180.715C130.349 180.482 130.295 180.275 130.19 180.093C130.085 179.911 129.943 179.772 129.767 179.673C129.591 179.576 129.407 179.528 129.211 179.528C129.015 179.528 128.831 179.576 128.655 179.673C128.479 179.769 128.337 179.911 128.232 180.093C128.127 180.275 128.073 180.482 128.073 180.715C128.073 180.93 128.127 181.129 128.232 181.308Z" fill="#1E2F55"></path><path d="M134.034 184.848C133.676 184.689 133.398 184.465 133.196 184.178C132.995 183.891 132.895 183.559 132.895 183.187C132.895 182.489 133.267 181.961 134.008 181.6C133.747 181.458 133.537 181.257 133.378 180.996C133.219 180.732 133.137 180.448 133.137 180.138C133.137 179.809 133.228 179.511 133.406 179.247C133.585 178.983 133.835 178.779 134.159 178.634C134.482 178.486 134.848 178.415 135.26 178.415C135.672 178.415 136.038 178.489 136.361 178.634C136.685 178.779 136.935 178.986 137.114 179.247C137.292 179.511 137.383 179.806 137.383 180.138C137.383 180.448 137.304 180.735 137.142 180.996C136.983 181.26 136.773 181.461 136.512 181.6C137.256 181.958 137.625 182.486 137.625 183.187C137.625 183.562 137.525 183.891 137.324 184.178C137.122 184.465 136.844 184.689 136.486 184.848C136.129 185.007 135.72 185.086 135.26 185.086C134.8 185.086 134.391 185.007 134.034 184.848ZM134.494 183.715C134.692 183.871 134.948 183.951 135.263 183.951C135.578 183.951 135.833 183.871 136.032 183.715C136.231 183.559 136.33 183.349 136.33 183.088C136.33 182.827 136.231 182.622 136.029 182.455C135.828 182.287 135.575 182.202 135.266 182.202C134.956 182.202 134.701 182.287 134.502 182.455C134.301 182.622 134.201 182.835 134.201 183.088C134.201 183.34 134.301 183.556 134.499 183.715H134.494ZM134.655 180.857C134.809 180.996 135.013 181.064 135.26 181.064C135.507 181.064 135.711 180.996 135.865 180.857C136.018 180.718 136.097 180.533 136.097 180.3C136.097 180.067 136.021 179.889 135.865 179.752C135.708 179.616 135.507 179.545 135.26 179.545C135.013 179.545 134.809 179.613 134.655 179.752C134.502 179.892 134.423 180.073 134.423 180.3C134.423 180.527 134.499 180.72 134.655 180.857Z" fill="#1E2F55"></path><path d="M139.765 184.828C139.407 184.655 139.129 184.413 138.927 184.104C138.726 183.795 138.627 183.443 138.627 183.048H139.927C139.927 183.315 140.026 183.531 140.225 183.698C140.423 183.866 140.676 183.951 140.985 183.951C141.278 183.951 141.516 183.866 141.701 183.698C141.885 183.531 141.976 183.312 141.976 183.048C141.976 182.804 141.897 182.608 141.741 182.458C141.584 182.31 141.377 182.233 141.122 182.233H140.284V181.104H141.122C141.329 181.104 141.496 181.033 141.627 180.894C141.758 180.752 141.823 180.57 141.823 180.349C141.823 180.104 141.743 179.909 141.587 179.764C141.431 179.619 141.23 179.545 140.985 179.545C140.741 179.545 140.543 179.616 140.387 179.761C140.23 179.906 140.154 180.09 140.154 180.317H138.868C138.868 179.948 138.959 179.619 139.138 179.329C139.316 179.04 139.566 178.816 139.89 178.654C140.213 178.495 140.58 178.413 140.991 178.413C141.403 178.413 141.777 178.484 142.098 178.628C142.419 178.773 142.666 178.975 142.848 179.239C143.029 179.503 143.117 179.809 143.117 180.161C143.117 180.536 143.018 180.851 142.816 181.104C142.615 181.359 142.345 181.535 142.005 181.632C142.399 181.739 142.711 181.927 142.938 182.194C143.166 182.46 143.279 182.79 143.279 183.184C143.279 183.548 143.183 183.874 142.987 184.164C142.791 184.453 142.521 184.68 142.175 184.842C141.829 185.004 141.431 185.086 140.988 185.086C140.545 185.086 140.125 185.001 139.768 184.825L139.765 184.828Z" fill="#1E2F55"></path></g><defs><clipPath id="clip0_30_12"><rect width="246" height="246" fill="white"></rect></clipPath></defs></svg> 